G04 Layer_Physical_Order=2*
G04 Layer_Color=16711680*
%FSLAX25Y25*%
%MOIN*%
G70*
G01*
G75*
%ADD11C,0.01200*%
%ADD12R,0.06000X0.06000*%
%ADD13C,0.06000*%
%ADD14R,0.06000X0.06000*%
%ADD15C,0.01600*%
G36*
X550000Y100000D02*
X100000D01*
Y500000D01*
X550000D01*
Y100000D01*
D02*
G37*
%LPC*%
G36*
X160000Y207479D02*
X158939Y207268D01*
X157616Y206384D01*
X156732Y205061D01*
X156521Y204000D01*
X160000D01*
Y207479D01*
D02*
G37*
G36*
X476500Y163000D02*
X473021D01*
X473232Y161939D01*
X474116Y160616D01*
X475439Y159732D01*
X476500Y159521D01*
Y163000D01*
D02*
G37*
G36*
X530500Y131618D02*
X528159Y131152D01*
X526174Y129826D01*
X524826D01*
X522841Y131152D01*
X520500Y131618D01*
X518159Y131152D01*
X516174Y129826D01*
X514826D01*
X512841Y131152D01*
X510500Y131618D01*
X508159Y131152D01*
X506174Y129826D01*
X504826D01*
X502841Y131152D01*
X500500Y131618D01*
X498159Y131152D01*
X496174Y129826D01*
X494826D01*
X492841Y131152D01*
X490500Y131618D01*
X488159Y131152D01*
X486174Y129826D01*
X484826D01*
X482841Y131152D01*
X480500Y131618D01*
X478159Y131152D01*
X476174Y129826D01*
X474826D01*
X472841Y131152D01*
X470500Y131618D01*
X468159Y131152D01*
X466174Y129826D01*
X464826D01*
X462841Y131152D01*
X460500Y131618D01*
X458159Y131152D01*
X456174Y129826D01*
X454826D01*
X452841Y131152D01*
X450500Y131618D01*
X448159Y131152D01*
X446174Y129826D01*
X444826D01*
X442841Y131152D01*
X440500Y131618D01*
X438159Y131152D01*
X436174Y129826D01*
X434848Y127841D01*
X434382Y125500D01*
X434681Y124000D01*
X434500Y121500D01*
X434500Y121500D01*
X434500Y121500D01*
Y109500D01*
X446500D01*
X446500Y109500D01*
X449000Y109681D01*
X450500Y109382D01*
X452841Y109848D01*
X454826Y111174D01*
X456174D01*
X458159Y109848D01*
X460500Y109382D01*
X462841Y109848D01*
X464826Y111174D01*
X466174D01*
X468159Y109848D01*
X470500Y109382D01*
X472841Y109848D01*
X474826Y111174D01*
X476174D01*
X478159Y109848D01*
X480500Y109382D01*
X482841Y109848D01*
X484826Y111174D01*
X486174D01*
X488159Y109848D01*
X490500Y109382D01*
X492841Y109848D01*
X494826Y111174D01*
X496174D01*
X498159Y109848D01*
X500500Y109382D01*
X502841Y109848D01*
X504826Y111174D01*
X506174D01*
X508159Y109848D01*
X510500Y109382D01*
X512841Y109848D01*
X514826Y111174D01*
X516174D01*
X518159Y109848D01*
X520500Y109382D01*
X522841Y109848D01*
X524826Y111174D01*
X526174D01*
X528159Y109848D01*
X530500Y109382D01*
X532841Y109848D01*
X534826Y111174D01*
X536152Y113159D01*
X536618Y115500D01*
X536152Y117841D01*
X534826Y119826D01*
Y121174D01*
X536152Y123159D01*
X536618Y125500D01*
X536152Y127841D01*
X534826Y129826D01*
X532841Y131152D01*
X530500Y131618D01*
D02*
G37*
G36*
X450500Y490618D02*
X448159Y490152D01*
X446174Y488826D01*
X444826D01*
X442841Y490152D01*
X440500Y490618D01*
X438159Y490152D01*
X436174Y488826D01*
X434826D01*
X432841Y490152D01*
X430500Y490618D01*
X428159Y490152D01*
X426174Y488826D01*
X424826D01*
X422841Y490152D01*
X420500Y490618D01*
X418159Y490152D01*
X416174Y488826D01*
X414826D01*
X412841Y490152D01*
X410500Y490618D01*
X408159Y490152D01*
X406174Y488826D01*
X404826D01*
X402841Y490152D01*
X400500Y490618D01*
X398159Y490152D01*
X396174Y488826D01*
X394826D01*
X392841Y490152D01*
X390500Y490618D01*
X388159Y490152D01*
X386174Y488826D01*
X384826D01*
X382841Y490152D01*
X380500Y490618D01*
X378159Y490152D01*
X376174Y488826D01*
X374826D01*
X372841Y490152D01*
X370500Y490618D01*
X368159Y490152D01*
X366174Y488826D01*
X364826D01*
X362841Y490152D01*
X360500Y490618D01*
X358159Y490152D01*
X356174Y488826D01*
X354848Y486841D01*
X354382Y484500D01*
X354681Y483000D01*
X354500Y480500D01*
X354500Y480500D01*
X354500Y480500D01*
Y468500D01*
X366500D01*
X366500Y468500D01*
X369000Y468681D01*
X370500Y468382D01*
X372841Y468848D01*
X374826Y470174D01*
X376174D01*
X378159Y468848D01*
X380500Y468382D01*
X382841Y468848D01*
X384826Y470174D01*
X386174D01*
X388159Y468848D01*
X390500Y468382D01*
X392841Y468848D01*
X394826Y470174D01*
X396174D01*
X398159Y468848D01*
X400500Y468382D01*
X402841Y468848D01*
X404826Y470174D01*
X406174D01*
X408159Y468848D01*
X410500Y468382D01*
X412841Y468848D01*
X414826Y470174D01*
X416174D01*
X418159Y468848D01*
X420500Y468382D01*
X422841Y468848D01*
X424826Y470174D01*
X426174D01*
X428159Y468848D01*
X430500Y468382D01*
X432841Y468848D01*
X434826Y470174D01*
X436174D01*
X438159Y468848D01*
X440500Y468382D01*
X442841Y468848D01*
X444826Y470174D01*
X446174D01*
X448159Y468848D01*
X450500Y468382D01*
X452841Y468848D01*
X454826Y470174D01*
X456152Y472159D01*
X456618Y474500D01*
X456152Y476841D01*
X454826Y478826D01*
Y480174D01*
X456152Y482159D01*
X456618Y484500D01*
X456152Y486841D01*
X454826Y488826D01*
X452841Y490152D01*
X450500Y490618D01*
D02*
G37*
G36*
X130500D02*
X129000Y490319D01*
X126500Y490500D01*
X126500Y490500D01*
X126500Y490500D01*
X114500D01*
Y478500D01*
X114500Y478500D01*
X114681Y476000D01*
X114382Y474500D01*
X114848Y472159D01*
X116174Y470174D01*
Y468826D01*
X114848Y466841D01*
X114382Y464500D01*
X114848Y462159D01*
X116174Y460174D01*
Y458826D01*
X114848Y456841D01*
X114382Y454500D01*
X114848Y452159D01*
X116174Y450174D01*
Y448826D01*
X114848Y446841D01*
X114382Y444500D01*
X114848Y442159D01*
X116174Y440174D01*
Y438826D01*
X114848Y436841D01*
X114382Y434500D01*
X114848Y432159D01*
X116174Y430174D01*
Y428826D01*
X114848Y426841D01*
X114382Y424500D01*
X114848Y422159D01*
X116174Y420174D01*
Y418826D01*
X114848Y416841D01*
X114382Y414500D01*
X114848Y412159D01*
X116174Y410174D01*
Y408826D01*
X114848Y406841D01*
X114382Y404500D01*
X114848Y402159D01*
X116174Y400174D01*
Y398826D01*
X114848Y396841D01*
X114382Y394500D01*
X114848Y392159D01*
X116174Y390174D01*
X118159Y388848D01*
X120500Y388383D01*
X122841Y388848D01*
X124826Y390174D01*
X126174D01*
X128159Y388848D01*
X130500Y388383D01*
X132841Y388848D01*
X134826Y390174D01*
X136152Y392159D01*
X136618Y394500D01*
X136152Y396841D01*
X134826Y398826D01*
Y400174D01*
X136152Y402159D01*
X136618Y404500D01*
X136152Y406841D01*
X134826Y408826D01*
Y410174D01*
X136152Y412159D01*
X136618Y414500D01*
X136152Y416841D01*
X134826Y418826D01*
Y420174D01*
X136152Y422159D01*
X136618Y424500D01*
X136152Y426841D01*
X134826Y428826D01*
Y430174D01*
X136152Y432159D01*
X136618Y434500D01*
X136152Y436841D01*
X134826Y438826D01*
Y440174D01*
X136152Y442159D01*
X136618Y444500D01*
X136152Y446841D01*
X134826Y448826D01*
Y450174D01*
X136152Y452159D01*
X136618Y454500D01*
X136152Y456841D01*
X134826Y458826D01*
Y460174D01*
X136152Y462159D01*
X136618Y464500D01*
X136152Y466841D01*
X134826Y468826D01*
Y470174D01*
X136152Y472159D01*
X136618Y474500D01*
X136152Y476841D01*
X134826Y478826D01*
Y480174D01*
X136152Y482159D01*
X136618Y484500D01*
X136152Y486841D01*
X134826Y488826D01*
X132841Y490152D01*
X130500Y490618D01*
D02*
G37*
G36*
X160000Y418479D02*
X158939Y418268D01*
X157616Y417384D01*
X156732Y416061D01*
X156521Y415000D01*
X160000D01*
Y418479D01*
D02*
G37*
G36*
X290500Y490618D02*
X288159Y490152D01*
X286174Y488826D01*
X284826D01*
X282841Y490152D01*
X280500Y490618D01*
X278159Y490152D01*
X276174Y488826D01*
X274826D01*
X272841Y490152D01*
X270500Y490618D01*
X268159Y490152D01*
X266174Y488826D01*
X264826D01*
X262841Y490152D01*
X260500Y490618D01*
X258159Y490152D01*
X256174Y488826D01*
X254826D01*
X252841Y490152D01*
X250500Y490618D01*
X248159Y490152D01*
X246174Y488826D01*
X244826D01*
X242841Y490152D01*
X240500Y490618D01*
X238159Y490152D01*
X236174Y488826D01*
X234826D01*
X232841Y490152D01*
X230500Y490618D01*
X228159Y490152D01*
X226174Y488826D01*
X224826D01*
X222841Y490152D01*
X220500Y490618D01*
X218159Y490152D01*
X216174Y488826D01*
X214826D01*
X212841Y490152D01*
X210500Y490618D01*
X208159Y490152D01*
X206174Y488826D01*
X204826D01*
X202841Y490152D01*
X200500Y490618D01*
X198159Y490152D01*
X196174Y488826D01*
X194848Y486841D01*
X194382Y484500D01*
X194681Y483000D01*
X194500Y480500D01*
X194500Y480500D01*
X194500Y480500D01*
Y468500D01*
X206500D01*
X206830Y466137D01*
Y462020D01*
X177904Y433096D01*
X177109Y431905D01*
X176830Y430500D01*
Y420265D01*
X176056Y419709D01*
X174390Y419117D01*
X172841Y420152D01*
X170500Y420618D01*
X168159Y420152D01*
X166174Y418826D01*
X165801Y418267D01*
X163547Y417443D01*
X162726Y417823D01*
X162061Y418268D01*
X161000Y418479D01*
Y414500D01*
X160500D01*
Y414000D01*
X156521D01*
X156720Y413000D01*
X156731Y412937D01*
X155355Y410500D01*
X154500D01*
Y398500D01*
X166500D01*
X166500Y398500D01*
X169000Y398681D01*
X170500Y398382D01*
X172841Y398848D01*
X174826Y400174D01*
X176174D01*
X178159Y398848D01*
X180500Y398382D01*
X182841Y398848D01*
X184826Y400174D01*
X186174D01*
X188159Y398848D01*
X190500Y398382D01*
X192841Y398848D01*
X194826Y400174D01*
X196174D01*
X198159Y398848D01*
X200500Y398382D01*
X202841Y398848D01*
X204826Y400174D01*
X206174D01*
X208159Y398848D01*
X210500Y398382D01*
X212841Y398848D01*
X214826Y400174D01*
X216174D01*
X218159Y398848D01*
X220500Y398382D01*
X221626Y397459D01*
Y335500D01*
X221920Y334017D01*
X222760Y332760D01*
X290760Y264760D01*
X292017Y263920D01*
X293500Y263626D01*
X336880D01*
X337837Y261316D01*
X307760Y231240D01*
X306921Y229983D01*
X306626Y228500D01*
Y209401D01*
X306392Y209196D01*
X304126Y208294D01*
X302841Y209152D01*
X300500Y209617D01*
X298159Y209152D01*
X296174Y207826D01*
X294826D01*
X292841Y209152D01*
X290500Y209617D01*
X288159Y209152D01*
X286174Y207826D01*
X284826D01*
X282841Y209152D01*
X280500Y209617D01*
X278159Y209152D01*
X276174Y207826D01*
X274826D01*
X272841Y209152D01*
X270500Y209617D01*
X268159Y209152D01*
X266174Y207826D01*
X264826D01*
X262841Y209152D01*
X260500Y209617D01*
X258159Y209152D01*
X256174Y207826D01*
X254826D01*
X252841Y209152D01*
X250500Y209617D01*
X248159Y209152D01*
X246174Y207826D01*
X244826D01*
X242841Y209152D01*
X240500Y209617D01*
X238159Y209152D01*
X236174Y207826D01*
X234826D01*
X232841Y209152D01*
X230500Y209617D01*
X228159Y209152D01*
X226174Y207826D01*
X224826D01*
X222841Y209152D01*
X220500Y209617D01*
X218159Y209152D01*
X216174Y207826D01*
X214826D01*
X212841Y209152D01*
X210500Y209617D01*
X208159Y209152D01*
X206174Y207826D01*
X204826D01*
X202841Y209152D01*
X200500Y209617D01*
X198159Y209152D01*
X196174Y207826D01*
X194826D01*
X192841Y209152D01*
X190500Y209617D01*
X188159Y209152D01*
X186174Y207826D01*
X184826D01*
X182841Y209152D01*
X180500Y209617D01*
X178159Y209152D01*
X176174Y207826D01*
X174826D01*
X172841Y209152D01*
X170500Y209617D01*
X168159Y209152D01*
X166174Y207826D01*
X165801Y207267D01*
X163547Y206443D01*
X162726Y206823D01*
X162061Y207268D01*
X161000Y207479D01*
Y203500D01*
X160500D01*
Y203000D01*
X156521D01*
X156720Y202000D01*
X156731Y201937D01*
X155355Y199500D01*
X154500D01*
Y187500D01*
X164985D01*
X166021Y185000D01*
X127760Y146740D01*
X126920Y145483D01*
X126626Y144000D01*
Y131401D01*
X126392Y131196D01*
X124126Y130294D01*
X122841Y131152D01*
X120500Y131618D01*
X118159Y131152D01*
X116174Y129826D01*
X114848Y127841D01*
X114382Y125500D01*
X114681Y124000D01*
X114500Y121500D01*
X114500Y121500D01*
X114500Y121500D01*
Y109500D01*
X126500D01*
X126500Y109500D01*
X129000Y109681D01*
X130500Y109382D01*
X132841Y109848D01*
X133679Y110408D01*
X135500Y110967D01*
X137321Y110408D01*
X138159Y109848D01*
X140500Y109382D01*
X142841Y109848D01*
X143679Y110408D01*
X145500Y110967D01*
X147321Y110408D01*
X148159Y109848D01*
X150500Y109382D01*
X152841Y109848D01*
X153679Y110408D01*
X155500Y110967D01*
X157321Y110408D01*
X158159Y109848D01*
X160500Y109382D01*
X162841Y109848D01*
X164826Y111174D01*
X166174D01*
X168159Y109848D01*
X170500Y109382D01*
X172841Y109848D01*
X174826Y111174D01*
X176174D01*
X178159Y109848D01*
X180500Y109382D01*
X182841Y109848D01*
X183679Y110408D01*
X185500Y110967D01*
X187321Y110408D01*
X188159Y109848D01*
X190500Y109382D01*
X192841Y109848D01*
X194826Y111174D01*
X196174D01*
X198159Y109848D01*
X200500Y109382D01*
X202841Y109848D01*
X204826Y111174D01*
X206174D01*
X208159Y109848D01*
X210500Y109382D01*
X212841Y109848D01*
X214826Y111174D01*
X216152Y113159D01*
X216617Y115500D01*
X216152Y117841D01*
X214826Y119826D01*
Y121174D01*
X216152Y123159D01*
X216617Y125500D01*
X216152Y127841D01*
X214826Y129826D01*
X212841Y131152D01*
X210500Y131618D01*
X209374Y132541D01*
Y142395D01*
X253240Y186260D01*
X254080Y187517D01*
X254126Y187749D01*
X256626Y187502D01*
Y179000D01*
X256921Y177517D01*
X257760Y176260D01*
X286626Y147395D01*
Y131401D01*
X286392Y131196D01*
X284126Y130294D01*
X282841Y131152D01*
X280500Y131618D01*
X278159Y131152D01*
X276174Y129826D01*
X274848Y127841D01*
X274382Y125500D01*
X274681Y124000D01*
X274500Y121500D01*
X274500Y121500D01*
X274500Y121500D01*
Y109500D01*
X286500D01*
X286500Y109500D01*
X289000Y109681D01*
X290500Y109382D01*
X292841Y109848D01*
X294826Y111174D01*
X296174D01*
X298159Y109848D01*
X300500Y109382D01*
X302841Y109848D01*
X303679Y110408D01*
X305500Y110967D01*
X307321Y110408D01*
X308159Y109848D01*
X310500Y109382D01*
X312841Y109848D01*
X314826Y111174D01*
X316174D01*
X318159Y109848D01*
X320500Y109382D01*
X322841Y109848D01*
X324826Y111174D01*
X326174D01*
X328159Y109848D01*
X330500Y109382D01*
X332841Y109848D01*
X333679Y110408D01*
X335500Y110967D01*
X337321Y110408D01*
X338159Y109848D01*
X340500Y109382D01*
X342841Y109848D01*
X343679Y110408D01*
X345500Y110967D01*
X347321Y110408D01*
X348159Y109848D01*
X350500Y109382D01*
X352841Y109848D01*
X353679Y110408D01*
X355500Y110967D01*
X357321Y110408D01*
X358159Y109848D01*
X360500Y109382D01*
X362841Y109848D01*
X364826Y111174D01*
X366174D01*
X368159Y109848D01*
X370500Y109382D01*
X372841Y109848D01*
X374826Y111174D01*
X376152Y113159D01*
X376618Y115500D01*
X376152Y117841D01*
X374826Y119826D01*
Y121174D01*
X376152Y123159D01*
X376618Y125500D01*
X376152Y127841D01*
X374826Y129826D01*
X372841Y131152D01*
X370500Y131618D01*
X368159Y131152D01*
X366174Y129826D01*
X364826D01*
X362841Y131152D01*
X360500Y131618D01*
X359374Y132541D01*
Y134000D01*
X359080Y135483D01*
X358240Y136740D01*
X314374Y180605D01*
Y187599D01*
X314608Y187804D01*
X316874Y188706D01*
X318159Y187848D01*
X320500Y187382D01*
X322841Y187848D01*
X324826Y189174D01*
X326174D01*
X328159Y187848D01*
X330500Y187382D01*
X332841Y187848D01*
X334826Y189174D01*
X336174D01*
X338159Y187848D01*
X340500Y187382D01*
X342841Y187848D01*
X344826Y189174D01*
X346174D01*
X348159Y187848D01*
X350500Y187382D01*
X352841Y187848D01*
X354826Y189174D01*
X356174D01*
X358159Y187848D01*
X360500Y187382D01*
X361032Y187488D01*
X377760Y170760D01*
X379017Y169921D01*
X380500Y169625D01*
X410469D01*
X411951Y169921D01*
X413208Y170760D01*
X417073Y174626D01*
X469959D01*
X470882Y173500D01*
X471348Y171159D01*
X472674Y169174D01*
X473233Y168801D01*
X474057Y166547D01*
X473677Y165726D01*
X473232Y165061D01*
X473021Y164000D01*
X477000D01*
Y163500D01*
X477500D01*
Y159521D01*
X478500Y159720D01*
X478563Y159731D01*
X481000Y158355D01*
Y157500D01*
X493000D01*
Y169500D01*
X493000Y169500D01*
X492819Y172000D01*
X493118Y173500D01*
X492652Y175841D01*
X491326Y177826D01*
Y179174D01*
X492652Y181159D01*
X493118Y183500D01*
X492652Y185841D01*
X491326Y187826D01*
Y189174D01*
X492652Y191159D01*
X493118Y193500D01*
X492652Y195841D01*
X491326Y197826D01*
Y199174D01*
X492652Y201159D01*
X493118Y203500D01*
X492652Y205841D01*
X491326Y207826D01*
Y209174D01*
X492652Y211159D01*
X493118Y213500D01*
X492652Y215841D01*
X491326Y217826D01*
Y219174D01*
X492652Y221159D01*
X493118Y223500D01*
X492652Y225841D01*
X491326Y227826D01*
Y229174D01*
X492652Y231159D01*
X493118Y233500D01*
X492652Y235841D01*
X491326Y237826D01*
Y239174D01*
X492652Y241159D01*
X493118Y243500D01*
X492652Y245841D01*
X491326Y247826D01*
Y249174D01*
X492652Y251159D01*
X493118Y253500D01*
X492652Y255841D01*
X491326Y257826D01*
Y259174D01*
X492652Y261159D01*
X493118Y263500D01*
X492652Y265841D01*
X491326Y267826D01*
Y269174D01*
X492652Y271159D01*
X493118Y273500D01*
X492652Y275841D01*
X491326Y277826D01*
Y279174D01*
X492652Y281159D01*
X493118Y283500D01*
X492652Y285841D01*
X491326Y287826D01*
Y289174D01*
X492652Y291159D01*
X493118Y293500D01*
X492652Y295841D01*
X491326Y297826D01*
Y299174D01*
X492652Y301159D01*
X493118Y303500D01*
X492652Y305841D01*
X491326Y307826D01*
Y309174D01*
X492652Y311159D01*
X493118Y313500D01*
X492652Y315841D01*
X491326Y317826D01*
Y319174D01*
X492652Y321159D01*
X493118Y323500D01*
X492652Y325841D01*
X491326Y327826D01*
Y329174D01*
X492652Y331159D01*
X493118Y333500D01*
X492652Y335841D01*
X491326Y337826D01*
Y339174D01*
X492652Y341159D01*
X493118Y343500D01*
X492652Y345841D01*
X491326Y347826D01*
Y349174D01*
X492652Y351159D01*
X493118Y353500D01*
X492652Y355841D01*
X491326Y357826D01*
Y359174D01*
X492652Y361159D01*
X493118Y363500D01*
X492652Y365841D01*
X491326Y367826D01*
Y369174D01*
X492652Y371159D01*
X493118Y373500D01*
X492652Y375841D01*
X491326Y377826D01*
Y379174D01*
X492652Y381159D01*
X493118Y383500D01*
X492652Y385841D01*
X491326Y387826D01*
Y389174D01*
X492652Y391159D01*
X493118Y393500D01*
X492652Y395841D01*
X491326Y397826D01*
Y399174D01*
X492652Y401159D01*
X493118Y403500D01*
X492652Y405841D01*
X491326Y407826D01*
Y409174D01*
X492652Y411159D01*
X493118Y413500D01*
X492652Y415841D01*
X491326Y417826D01*
Y419174D01*
X492652Y421159D01*
X493118Y423500D01*
X492652Y425841D01*
X491326Y427826D01*
Y429174D01*
X492652Y431159D01*
X493118Y433500D01*
X492652Y435841D01*
X491326Y437826D01*
Y439174D01*
X492652Y441159D01*
X493118Y443500D01*
X492652Y445841D01*
X491326Y447826D01*
Y449174D01*
X492652Y451159D01*
X493118Y453500D01*
X492652Y455841D01*
X491326Y457826D01*
X489341Y459152D01*
X487000Y459618D01*
X484659Y459152D01*
X482674Y457826D01*
X481326D01*
X479341Y459152D01*
X477000Y459618D01*
X474659Y459152D01*
X472674Y457826D01*
X471348Y455841D01*
X470882Y453500D01*
X469959Y452374D01*
X444500D01*
X443017Y452079D01*
X441760Y451240D01*
X408317Y417796D01*
X405220Y418235D01*
X404826Y418826D01*
X402841Y420152D01*
X400500Y420618D01*
X398159Y420152D01*
X396174Y418826D01*
X394826D01*
X392841Y420152D01*
X390500Y420618D01*
X388159Y420152D01*
X386174Y418826D01*
X384826D01*
X382841Y420152D01*
X380500Y420618D01*
X378159Y420152D01*
X376174Y418826D01*
X374826D01*
X372841Y420152D01*
X370500Y420618D01*
X368159Y420152D01*
X366174Y418826D01*
X364826D01*
X362841Y420152D01*
X360500Y420618D01*
X358159Y420152D01*
X356174Y418826D01*
X354826D01*
X352841Y420152D01*
X350500Y420618D01*
X348159Y420152D01*
X346174Y418826D01*
X344826D01*
X342841Y420152D01*
X340500Y420618D01*
X338159Y420152D01*
X336174Y418826D01*
X334826D01*
X332841Y420152D01*
X330500Y420618D01*
X328159Y420152D01*
X326174Y418826D01*
X324826D01*
X322841Y420152D01*
X320500Y420618D01*
X318159Y420152D01*
X316174Y418826D01*
X314826D01*
X312841Y420152D01*
X310500Y420618D01*
X308159Y420152D01*
X306174Y418826D01*
X304826D01*
X302841Y420152D01*
X300500Y420618D01*
X298159Y420152D01*
X296174Y418826D01*
X294826D01*
X292841Y420152D01*
X290500Y420618D01*
X288159Y420152D01*
X286174Y418826D01*
X284826D01*
X282841Y420152D01*
X280500Y420618D01*
X278159Y420152D01*
X276174Y418826D01*
X274826D01*
X272841Y420152D01*
X270500Y420618D01*
X268159Y420152D01*
X266174Y418826D01*
X264826D01*
X262841Y420152D01*
X260500Y420618D01*
X258159Y420152D01*
X256174Y418826D01*
X254826D01*
X252841Y420152D01*
X250500Y420618D01*
X248159Y420152D01*
X246174Y418826D01*
X244826D01*
X242841Y420152D01*
X240500Y420618D01*
X238159Y420152D01*
X236174Y418826D01*
X234826D01*
X232841Y420152D01*
X230500Y420618D01*
X228159Y420152D01*
X226174Y418826D01*
X224826D01*
X222841Y420152D01*
X220500Y420618D01*
X218159Y420152D01*
X216174Y418826D01*
X214826D01*
X212841Y420152D01*
X210500Y420618D01*
X208159Y420152D01*
X206174Y418826D01*
X204826D01*
X202841Y420152D01*
X200500Y420618D01*
X198159Y420152D01*
X196174Y418826D01*
X194826D01*
X192841Y420152D01*
X190500Y420618D01*
X188159Y420152D01*
X186610Y419117D01*
X184944Y419709D01*
X184170Y420265D01*
Y428980D01*
X213095Y457904D01*
X213095Y457904D01*
X213891Y459095D01*
X214171Y460500D01*
X214171Y460500D01*
Y468735D01*
X214944Y469291D01*
X216610Y469883D01*
X218159Y468848D01*
X220500Y468382D01*
X222841Y468848D01*
X224826Y470174D01*
X226174D01*
X228159Y468848D01*
X230500Y468382D01*
X232841Y468848D01*
X234826Y470174D01*
X236174D01*
X238159Y468848D01*
X240500Y468382D01*
X242841Y468848D01*
X244826Y470174D01*
X246174D01*
X248159Y468848D01*
X250500Y468382D01*
X252841Y468848D01*
X254826Y470174D01*
X256174D01*
X258159Y468848D01*
X260500Y468382D01*
X262841Y468848D01*
X264826Y470174D01*
X266174D01*
X268159Y468848D01*
X270500Y468382D01*
X272841Y468848D01*
X274826Y470174D01*
X276174D01*
X278159Y468848D01*
X280500Y468382D01*
X282841Y468848D01*
X284826Y470174D01*
X286174D01*
X288159Y468848D01*
X290500Y468382D01*
X292841Y468848D01*
X294826Y470174D01*
X296152Y472159D01*
X296618Y474500D01*
X296152Y476841D01*
X294826Y478826D01*
Y480174D01*
X296152Y482159D01*
X296618Y484500D01*
X296152Y486841D01*
X294826Y488826D01*
X292841Y490152D01*
X290500Y490618D01*
D02*
G37*
%LPD*%
D11*
X180500Y414500D02*
Y430500D01*
X210500Y460500D01*
Y474500D01*
D12*
X487000Y163500D02*
D03*
X120500Y484500D02*
D03*
D13*
X477000Y163500D02*
D03*
X487000Y173500D02*
D03*
X477000D02*
D03*
X487000Y183500D02*
D03*
X477000D02*
D03*
X487000Y193500D02*
D03*
X477000D02*
D03*
X487000Y203500D02*
D03*
X477000D02*
D03*
X487000Y213500D02*
D03*
X477000D02*
D03*
X487000Y223500D02*
D03*
X477000D02*
D03*
X487000Y233500D02*
D03*
X477000D02*
D03*
X487000Y243500D02*
D03*
X477000D02*
D03*
X487000Y253500D02*
D03*
X477000D02*
D03*
X487000Y263500D02*
D03*
X477000D02*
D03*
X487000Y273500D02*
D03*
X477000D02*
D03*
X487000Y283500D02*
D03*
X477000D02*
D03*
X487000Y293500D02*
D03*
X477000D02*
D03*
X487000Y303500D02*
D03*
X477000D02*
D03*
X487000Y313500D02*
D03*
X477000D02*
D03*
X487000Y323500D02*
D03*
X477000D02*
D03*
X487000Y333500D02*
D03*
X477000D02*
D03*
X487000Y343500D02*
D03*
X477000D02*
D03*
X487000Y353500D02*
D03*
X477000D02*
D03*
X487000Y363500D02*
D03*
X477000D02*
D03*
X487000Y373500D02*
D03*
X477000D02*
D03*
X487000Y383500D02*
D03*
X477000D02*
D03*
X487000Y393500D02*
D03*
X477000D02*
D03*
X487000Y403500D02*
D03*
X477000D02*
D03*
X487000Y413500D02*
D03*
X477000D02*
D03*
X487000Y423500D02*
D03*
X477000D02*
D03*
X487000Y433500D02*
D03*
X477000D02*
D03*
X487000Y443500D02*
D03*
X477000D02*
D03*
X487000Y453500D02*
D03*
X477000D02*
D03*
X400500Y203500D02*
D03*
Y193500D02*
D03*
X390500Y203500D02*
D03*
Y193500D02*
D03*
X380500Y203500D02*
D03*
Y193500D02*
D03*
X370500Y203500D02*
D03*
Y193500D02*
D03*
X360500Y203500D02*
D03*
Y193500D02*
D03*
X350500Y203500D02*
D03*
Y193500D02*
D03*
X340500Y203500D02*
D03*
Y193500D02*
D03*
X330500Y203500D02*
D03*
Y193500D02*
D03*
X320500Y203500D02*
D03*
Y193500D02*
D03*
X310500Y203500D02*
D03*
Y193500D02*
D03*
X300500Y203500D02*
D03*
Y193500D02*
D03*
X290500Y203500D02*
D03*
Y193500D02*
D03*
X280500Y203500D02*
D03*
Y193500D02*
D03*
X270500Y203500D02*
D03*
Y193500D02*
D03*
X260500Y203500D02*
D03*
Y193500D02*
D03*
X250500Y203500D02*
D03*
Y193500D02*
D03*
X240500Y203500D02*
D03*
Y193500D02*
D03*
X230500Y203500D02*
D03*
Y193500D02*
D03*
X220500Y203500D02*
D03*
Y193500D02*
D03*
X210500Y203500D02*
D03*
Y193500D02*
D03*
X200500Y203500D02*
D03*
Y193500D02*
D03*
X190500Y203500D02*
D03*
Y193500D02*
D03*
X180500Y203500D02*
D03*
Y193500D02*
D03*
X170500Y203500D02*
D03*
Y193500D02*
D03*
X160500Y203500D02*
D03*
X400500Y414500D02*
D03*
Y404500D02*
D03*
X390500Y414500D02*
D03*
Y404500D02*
D03*
X380500Y414500D02*
D03*
Y404500D02*
D03*
X370500Y414500D02*
D03*
Y404500D02*
D03*
X360500Y414500D02*
D03*
Y404500D02*
D03*
X350500Y414500D02*
D03*
Y404500D02*
D03*
X340500Y414500D02*
D03*
Y404500D02*
D03*
X330500Y414500D02*
D03*
Y404500D02*
D03*
X320500Y414500D02*
D03*
Y404500D02*
D03*
X310500Y414500D02*
D03*
Y404500D02*
D03*
X300500Y414500D02*
D03*
Y404500D02*
D03*
X290500Y414500D02*
D03*
Y404500D02*
D03*
X280500Y414500D02*
D03*
Y404500D02*
D03*
X270500Y414500D02*
D03*
Y404500D02*
D03*
X260500Y414500D02*
D03*
Y404500D02*
D03*
X250500Y414500D02*
D03*
Y404500D02*
D03*
X240500Y414500D02*
D03*
Y404500D02*
D03*
X230500Y414500D02*
D03*
Y404500D02*
D03*
X220500Y414500D02*
D03*
Y404500D02*
D03*
X210500Y414500D02*
D03*
Y404500D02*
D03*
X200500Y414500D02*
D03*
Y404500D02*
D03*
X190500Y414500D02*
D03*
Y404500D02*
D03*
X180500Y414500D02*
D03*
Y404500D02*
D03*
X170500Y414500D02*
D03*
Y404500D02*
D03*
X160500Y414500D02*
D03*
X120500Y125500D02*
D03*
X130500Y115500D02*
D03*
Y125500D02*
D03*
X140500Y115500D02*
D03*
Y125500D02*
D03*
X150500Y115500D02*
D03*
Y125500D02*
D03*
X160500Y115500D02*
D03*
Y125500D02*
D03*
X170500Y115500D02*
D03*
Y125500D02*
D03*
X180500Y115500D02*
D03*
Y125500D02*
D03*
X190500Y115500D02*
D03*
Y125500D02*
D03*
X200500Y115500D02*
D03*
Y125500D02*
D03*
X210500Y115500D02*
D03*
Y125500D02*
D03*
X280500D02*
D03*
X290500Y115500D02*
D03*
Y125500D02*
D03*
X300500Y115500D02*
D03*
Y125500D02*
D03*
X310500Y115500D02*
D03*
Y125500D02*
D03*
X320500Y115500D02*
D03*
Y125500D02*
D03*
X330500Y115500D02*
D03*
Y125500D02*
D03*
X340500Y115500D02*
D03*
Y125500D02*
D03*
X350500Y115500D02*
D03*
Y125500D02*
D03*
X360500Y115500D02*
D03*
Y125500D02*
D03*
X370500Y115500D02*
D03*
Y125500D02*
D03*
X440500D02*
D03*
X450500Y115500D02*
D03*
Y125500D02*
D03*
X460500Y115500D02*
D03*
Y125500D02*
D03*
X470500Y115500D02*
D03*
Y125500D02*
D03*
X480500Y115500D02*
D03*
Y125500D02*
D03*
X490500Y115500D02*
D03*
Y125500D02*
D03*
X500500Y115500D02*
D03*
Y125500D02*
D03*
X510500Y115500D02*
D03*
Y125500D02*
D03*
X520500Y115500D02*
D03*
Y125500D02*
D03*
X530500Y115500D02*
D03*
Y125500D02*
D03*
X130500Y484500D02*
D03*
X120500Y474500D02*
D03*
X130500D02*
D03*
X120500Y464500D02*
D03*
X130500D02*
D03*
X120500Y454500D02*
D03*
X130500D02*
D03*
X120500Y444500D02*
D03*
X130500D02*
D03*
X120500Y434500D02*
D03*
X130500D02*
D03*
X120500Y424500D02*
D03*
X130500D02*
D03*
X120500Y414500D02*
D03*
X130500D02*
D03*
X120500Y404500D02*
D03*
X130500D02*
D03*
X120500Y394500D02*
D03*
X130500D02*
D03*
X200500Y484500D02*
D03*
X210500Y474500D02*
D03*
Y484500D02*
D03*
X220500Y474500D02*
D03*
Y484500D02*
D03*
X230500Y474500D02*
D03*
Y484500D02*
D03*
X240500Y474500D02*
D03*
Y484500D02*
D03*
X250500Y474500D02*
D03*
Y484500D02*
D03*
X260500Y474500D02*
D03*
Y484500D02*
D03*
X270500Y474500D02*
D03*
Y484500D02*
D03*
X280500Y474500D02*
D03*
Y484500D02*
D03*
X290500Y474500D02*
D03*
Y484500D02*
D03*
X360500D02*
D03*
X370500Y474500D02*
D03*
Y484500D02*
D03*
X380500Y474500D02*
D03*
Y484500D02*
D03*
X390500Y474500D02*
D03*
Y484500D02*
D03*
X400500Y474500D02*
D03*
Y484500D02*
D03*
X410500Y474500D02*
D03*
Y484500D02*
D03*
X420500Y474500D02*
D03*
Y484500D02*
D03*
X430500Y474500D02*
D03*
Y484500D02*
D03*
X440500Y474500D02*
D03*
Y484500D02*
D03*
X450500Y474500D02*
D03*
Y484500D02*
D03*
D14*
X160500Y193500D02*
D03*
Y404500D02*
D03*
X120500Y115500D02*
D03*
X280500D02*
D03*
X440500D02*
D03*
X200500Y474500D02*
D03*
X360500D02*
D03*
D15*
X225500Y335500D02*
X293500Y267500D01*
X230500Y337500D02*
Y404500D01*
Y337500D02*
X296500Y271500D01*
X235500Y339500D02*
X299500Y275500D01*
X293500Y267500D02*
X434719D01*
X296500Y271500D02*
X434759D01*
X299500Y275500D02*
X434799D01*
X302500Y279500D02*
X434839D01*
X240500Y341500D02*
X302500Y279500D01*
X240500Y341500D02*
Y404500D01*
X225500Y335500D02*
Y409500D01*
X235500Y339500D02*
Y409500D01*
X305500Y283500D02*
X434879D01*
X245500Y343500D02*
X305500Y283500D01*
X245500Y343500D02*
Y409500D01*
X308500Y287500D02*
X434920D01*
X250500Y345500D02*
X308500Y287500D01*
X250500Y345500D02*
Y404500D01*
X314500Y295500D02*
X433500D01*
X260500Y349500D02*
X314500Y295500D01*
X260500Y349500D02*
Y404500D01*
X317500Y299500D02*
X431500D01*
X265500Y351500D02*
X317500Y299500D01*
X265500Y351500D02*
Y409500D01*
X320500Y303500D02*
X429500D01*
X270500Y353500D02*
X320500Y303500D01*
X270500Y353500D02*
Y404500D01*
X200500Y125500D02*
Y144000D01*
X250500Y189000D02*
Y193500D01*
X185500Y120500D02*
X190500Y115500D01*
X170500Y125500D02*
Y144000D01*
X175500Y120500D02*
X180500Y115500D01*
X175500Y120500D02*
Y144000D01*
X220500Y189000D01*
Y193500D01*
X140500Y125500D02*
Y144000D01*
X145500Y120500D02*
X150500Y115500D01*
X145500Y120500D02*
Y144000D01*
X190500Y189000D01*
Y193500D01*
X180500Y189000D02*
Y193500D01*
X400500Y203500D02*
X476900D01*
X400500Y193500D02*
X405500Y198500D01*
X481500D01*
X487000Y204000D01*
X410000Y193500D02*
X476500D01*
X380500Y203500D02*
X390500Y213500D01*
X476500D01*
X481500Y188500D02*
X487000Y194000D01*
X370500Y203500D02*
X385500Y218500D01*
X481500D01*
X487000Y224000D01*
X350500Y203500D02*
Y208500D01*
X375500Y233500D01*
X481500Y228500D02*
X487000Y234000D01*
X340500Y203500D02*
Y213500D01*
X345500Y198500D02*
Y211000D01*
X340500Y193500D02*
X345500Y198500D01*
X330500Y203500D02*
Y218500D01*
X335500Y198500D02*
Y216000D01*
X330500Y193500D02*
X335500Y198500D01*
X481500Y248500D02*
X487000Y254000D01*
X320500Y203500D02*
Y223500D01*
X325500Y198500D02*
Y221000D01*
X320500Y193500D02*
X325500Y198500D01*
X481500Y258500D02*
X487000Y264000D01*
X310500Y203500D02*
Y228500D01*
X481500Y268500D02*
X487000Y274000D01*
X345500Y120500D02*
X350500Y115500D01*
X290500Y203500D02*
X295500Y198500D01*
X335500Y120500D02*
X340500Y115500D01*
X280500Y203500D02*
X285500Y198500D01*
X320500Y125500D02*
Y134000D01*
X260500Y203500D02*
X265500Y198500D01*
X220500Y414500D02*
X225500Y409500D01*
X481500Y278500D02*
X487000Y284000D01*
X230500Y414500D02*
X235500Y409500D01*
X481500Y288500D02*
X487000Y294000D01*
X240500Y414500D02*
X245500Y409500D01*
X481500Y298500D02*
X487000Y304000D01*
X255500Y347500D02*
Y409500D01*
X250500Y414500D02*
X255500Y409500D01*
X260500Y414500D02*
X265500Y409500D01*
X481500Y318500D02*
X487000Y324000D01*
X270500Y414500D02*
X275500Y409500D01*
X481500Y328500D02*
X487000Y334000D01*
X481500Y338500D02*
X487000Y344000D01*
X290500Y414500D02*
X295500Y409500D01*
X444500Y348500D02*
X481500D01*
X487000Y354000D01*
X300500Y414500D02*
X305500Y409500D01*
X444500Y353500D02*
X476500D01*
X444500Y358500D02*
X481500D01*
X487000Y364000D01*
X310500Y414500D02*
X315500Y409500D01*
X444500Y363500D02*
X476500D01*
X444500Y368500D02*
X481500D01*
X487000Y374000D01*
X444500Y373500D02*
X476500D01*
X444500Y378500D02*
X481500D01*
X487000Y384000D01*
X330500Y414500D02*
X335500Y409500D01*
X444500Y383500D02*
X476500D01*
X481500Y388500D02*
X487000Y394000D01*
X444000Y393500D02*
X476500D01*
X444000Y398500D02*
X481500D01*
X487000Y404000D01*
X350500Y414500D02*
X355500Y409500D01*
X444000Y403500D02*
X476500D01*
X444000Y408500D02*
X481500D01*
X487000Y414000D01*
X360500Y414500D02*
X365500Y409500D01*
X444000Y413500D02*
X476500D01*
X481500Y418500D02*
X487000Y424000D01*
X370500Y414500D02*
X375500Y409500D01*
X380500Y397500D02*
Y404500D01*
X444000Y428500D02*
X481500D01*
X487000Y434000D01*
X444500Y433500D02*
X476500D01*
X395500Y399500D02*
X405500D01*
X390500Y404500D02*
X395500Y399500D01*
X405500D02*
X444500Y438500D01*
X481500D01*
X487000Y444000D01*
X400500Y404500D02*
X405500D01*
X444500Y443500D01*
X476500D01*
X395500Y409500D02*
X405500D01*
X390500Y414500D02*
X395500Y409500D01*
X405500D02*
X444500Y448500D01*
X481500D01*
X487000Y454000D01*
X476500Y193500D02*
X477000D01*
X476500D02*
X477000Y194000D01*
X476500Y213500D02*
X477000Y214000D01*
X476500Y343500D02*
X477000Y344000D01*
X476500Y353500D02*
X477000Y354000D01*
X476500Y363500D02*
X477000Y364000D01*
X476500Y373500D02*
X477000Y374000D01*
X476500Y383500D02*
X477000Y384000D01*
X476500Y393500D02*
X477000Y394000D01*
X476500Y403500D02*
X477000Y404000D01*
X476500Y413500D02*
X477000Y414000D01*
X476500Y423500D02*
X477000Y424000D01*
X476500Y433500D02*
X477000Y434000D01*
X476500Y443500D02*
X477000Y444000D01*
X275500Y179000D02*
X320500Y134000D01*
X275500Y179000D02*
Y198500D01*
X270500Y203500D02*
X275500Y198500D01*
X310500Y179000D02*
Y193500D01*
X270500Y179000D02*
Y193500D01*
X260500Y179000D02*
Y193500D01*
X265500Y179000D02*
Y198500D01*
X135500Y120500D02*
X140500Y115500D01*
X135500Y120500D02*
Y144000D01*
X180500Y189000D01*
X155500Y120500D02*
X160500Y115500D01*
X165500Y120500D02*
X170500Y115500D01*
X195500Y120500D02*
X200500Y115500D01*
X205500Y120500D02*
X210500Y115500D01*
X205500Y120500D02*
Y144000D01*
X250500Y189000D01*
X130500Y125500D02*
Y144000D01*
X150500Y125500D02*
Y144000D01*
X155500Y120500D02*
Y144000D01*
X200500Y189000D01*
Y193500D01*
X160500Y125500D02*
Y144000D01*
X165500Y120500D02*
Y144000D01*
X210500Y189000D01*
Y193500D01*
X180500Y125500D02*
Y144000D01*
X185500Y120500D02*
Y144000D01*
X230500Y189000D01*
Y193500D01*
X190500Y125500D02*
Y144000D01*
X195500Y120500D02*
Y144000D01*
X240500Y189000D01*
Y193500D01*
X130500Y144000D02*
X175500Y189000D01*
Y198500D01*
X180500Y203500D01*
X140500Y144000D02*
X185500Y189000D01*
Y198500D01*
X190500Y203500D01*
X150500Y144000D02*
X195500Y189000D01*
Y198500D01*
X200500Y203500D01*
X160500Y144000D02*
X205500Y189000D01*
Y198500D01*
X210500Y203500D01*
X170500Y144000D02*
X215500Y189000D01*
Y198500D01*
X220500Y203500D01*
X180500Y144000D02*
X225500Y189000D01*
Y198500D01*
X230500Y203500D01*
X190500Y144000D02*
X235500Y189000D01*
Y198500D01*
X240500Y203500D01*
X200500Y144000D02*
X245500Y189000D01*
Y198500D01*
X250500Y203500D01*
X315500Y120500D02*
X320500Y115500D01*
X315500Y120500D02*
Y134000D01*
X270500Y179000D02*
X315500Y134000D01*
X325500Y120500D02*
X330500Y115500D01*
X355500Y120500D02*
X360500Y115500D01*
X355500Y120500D02*
Y134000D01*
X310500Y179000D02*
X355500Y134000D01*
X280500Y179000D02*
Y193500D01*
Y179000D02*
X325500Y134000D01*
Y120500D02*
Y134000D01*
X285500Y179000D02*
Y198500D01*
Y179000D02*
X330500Y134000D01*
Y125500D02*
Y134000D01*
X290500Y179000D02*
Y193500D01*
Y179000D02*
X335500Y134000D01*
Y120500D02*
Y134000D01*
X295500Y179000D02*
Y198500D01*
Y179000D02*
X340500Y134000D01*
Y125500D02*
Y134000D01*
X300500Y179000D02*
Y193500D01*
Y179000D02*
X345500Y134000D01*
Y120500D02*
Y134000D01*
X260500Y179000D02*
X290500Y149000D01*
Y125500D02*
Y149000D01*
X295500Y120500D02*
X300500Y115500D01*
X295500Y120500D02*
Y149000D01*
X265500Y179000D02*
X295500Y149000D01*
X355500Y206000D02*
X378000Y228500D01*
X355500Y198500D02*
Y206000D01*
X350500Y193500D02*
X355500Y198500D01*
X385500Y399500D02*
Y409500D01*
X380500Y414500D02*
X385500Y409500D01*
X340500Y414500D02*
X345500Y409500D01*
X320500Y414500D02*
X325500Y409500D01*
X280500Y414500D02*
X285500Y409500D01*
X411000Y188500D02*
X481500D01*
X415469Y178500D02*
X481500D01*
X487000Y184000D01*
X370500Y193500D02*
X385500Y178500D01*
X390500Y193500D02*
X395500Y188500D01*
X405000D01*
X410000Y193500D01*
X380500D02*
X390500Y183500D01*
X406000D01*
X411000Y188500D01*
X360500Y193500D02*
X380500Y173500D01*
X410469D01*
X415469Y178500D01*
X385500D02*
X407941D01*
X412966Y183500D02*
X477000D01*
X407941Y178475D02*
X412966Y183500D01*
X481500Y208500D02*
X487000Y214000D01*
X395500Y208500D02*
X481500D01*
X390500Y203500D02*
X395500Y208500D01*
X444500Y388500D02*
X481500D01*
X444750Y343500D02*
X476500D01*
X444500Y338500D02*
X481500D01*
X444500Y328500D02*
X481500D01*
X444500Y318500D02*
X481500D01*
X444000Y323000D02*
X476000D01*
X477000Y324000D01*
X445000Y313000D02*
X476000D01*
X477000Y314000D01*
X385500Y399500D02*
X389500Y395500D01*
X406500D01*
X444500Y433500D01*
X380500Y397500D02*
X386500Y391500D01*
X407000D01*
X444000Y428500D01*
X410000Y379500D02*
X444000Y413500D01*
Y423500D02*
X476500D01*
X408000Y387500D02*
X444000Y423500D01*
Y418500D02*
X481500D01*
X409000Y383500D02*
X444000Y418500D01*
X427400Y346400D02*
X444500Y363500D01*
X476900Y273400D02*
X477000Y273500D01*
X476300Y253300D02*
X477000Y254000D01*
X476500Y233500D02*
X477000Y234000D01*
X375500Y233500D02*
X476500D01*
X378000Y228500D02*
X481500D01*
X476500Y223500D02*
X477000Y224000D01*
X360500Y203500D02*
X380500Y223500D01*
X476500D01*
X310500Y228500D02*
X345500Y263500D01*
X320500Y223500D02*
X356500Y259500D01*
X325500Y221000D02*
X360000Y255500D01*
X330500Y218500D02*
X363500Y251500D01*
X335500Y216000D02*
X367000Y247500D01*
X340500Y213500D02*
X370500Y243500D01*
X427360Y346400D02*
X427400D01*
X476200Y303200D02*
X477000Y304000D01*
X476500Y293500D02*
X477000Y294000D01*
X445000Y334000D02*
X477000D01*
X476100Y283100D02*
X477000Y284000D01*
X440619Y273400D02*
X476900D01*
X439678Y268500D02*
X481500D01*
X476500Y263500D02*
X477000Y264000D01*
X438638Y263500D02*
X476500D01*
X437598Y258500D02*
X481500D01*
X434719Y267500D02*
X440619Y273400D01*
X345500Y263500D02*
X434678D01*
X439678Y268500D01*
X436358Y253300D02*
X476300D01*
X356500Y259500D02*
X434638D01*
X438638Y263500D01*
X360000Y255500D02*
X434598D01*
X437598Y258500D01*
X435518Y248500D02*
X481500D01*
X363500Y251500D02*
X434558D01*
X436358Y253300D01*
X367000Y247500D02*
X434517D01*
X435518Y248500D01*
X434759Y271500D02*
X441759Y278500D01*
X481500D01*
X434799Y275500D02*
X442399Y283100D01*
X476100D01*
X443839Y288500D02*
X481500D01*
X444879Y293500D02*
X476500D01*
X445920Y298500D02*
X481500D01*
X446660Y303200D02*
X476200D01*
X446500Y308500D02*
X481500D01*
X487000Y314000D01*
X383500Y387500D02*
X408000D01*
X375500Y395500D02*
Y409500D01*
Y395500D02*
X383500Y387500D01*
X370500Y393500D02*
Y404500D01*
Y393500D02*
X380500Y383500D01*
X409000D01*
X365500Y391500D02*
Y409500D01*
Y391500D02*
X377500Y379500D01*
X410000D01*
X360500Y389500D02*
Y404500D01*
Y389500D02*
X374500Y375500D01*
X411000D01*
X444000Y408500D01*
X412000Y371500D02*
X444000Y403500D01*
X413000Y367500D02*
X444000Y398500D01*
X414000Y363500D02*
X444000Y393500D01*
X415500Y359500D02*
X444500Y388500D01*
X416500Y355500D02*
X444500Y383500D01*
X417500Y351500D02*
X444500Y378500D01*
X418500Y347500D02*
X444500Y373500D01*
X419500Y343500D02*
X444500Y368500D01*
X420460Y339500D02*
X427360Y346400D01*
X421500Y335500D02*
X444500Y358500D01*
X422500Y331500D02*
X444500Y353500D01*
X423500Y327500D02*
X444500Y348500D01*
X424750Y323500D02*
X444750Y343500D01*
X425500Y319500D02*
X444500Y338500D01*
X426500Y315500D02*
X445000Y334000D01*
X427500Y311500D02*
X444500Y328500D01*
X428500Y307500D02*
X444000Y323000D01*
X429500Y303500D02*
X444500Y318500D01*
X431500Y299500D02*
X445000Y313000D01*
X433500Y295500D02*
X446500Y308500D01*
X255500Y347500D02*
X311500Y291500D01*
X434960D01*
X446660Y303200D01*
X434920Y287500D02*
X445920Y298500D01*
X434879Y283500D02*
X444879Y293500D01*
X434839Y279500D02*
X443839Y288500D01*
X345500Y211000D02*
X373000Y238500D01*
X370500Y243500D02*
X476500D01*
X477000Y244000D01*
X373000Y238500D02*
X481500D01*
X487000Y244000D01*
X355500Y387500D02*
Y409500D01*
Y387500D02*
X371500Y371500D01*
X412000D01*
X350500Y385500D02*
Y404500D01*
Y385500D02*
X368500Y367500D01*
X413000D01*
X345500Y383500D02*
Y409500D01*
Y383500D02*
X365500Y363500D01*
X414000D01*
X340500Y381500D02*
Y404500D01*
Y381500D02*
X362500Y359500D01*
X415500D01*
X335500Y379500D02*
Y409500D01*
Y379500D02*
X359500Y355500D01*
X416500D01*
X330500Y377500D02*
Y404500D01*
Y377500D02*
X356500Y351500D01*
X417500D01*
X325500Y375500D02*
Y409500D01*
Y375500D02*
X353500Y347500D01*
X418500D01*
X320500Y373500D02*
Y404500D01*
Y373500D02*
X350500Y343500D01*
X419500D01*
X315500Y371500D02*
Y409500D01*
Y371500D02*
X347500Y339500D01*
X420460D01*
X310500Y369500D02*
Y404500D01*
Y369500D02*
X344500Y335500D01*
X421500D01*
X300500Y365500D02*
Y404500D01*
Y365500D02*
X338500Y327500D01*
X423500D01*
X305500Y367500D02*
Y409500D01*
Y367500D02*
X341500Y331500D01*
X422500D01*
X295500Y363500D02*
Y409500D01*
Y363500D02*
X335500Y323500D01*
X424750D01*
X290500Y361500D02*
Y404500D01*
Y361500D02*
X332500Y319500D01*
X425500D01*
X285500Y359500D02*
Y409500D01*
Y359500D02*
X329500Y315500D01*
X426500D01*
X280500Y357500D02*
Y404500D01*
Y357500D02*
X326500Y311500D01*
X427500D01*
X275500Y355500D02*
Y409500D01*
Y355500D02*
X323500Y307500D01*
X428500D01*
M02*
