G04 Layer_Physical_Order=1*
G04 Layer_Color=255*
%FSLAX25Y25*%
%MOIN*%
G70*
G01*
G75*
%ADD10C,0.03500*%
%ADD11C,0.01200*%
%ADD12R,0.06000X0.06000*%
%ADD13C,0.06000*%
%ADD14R,0.06000X0.06000*%
G36*
X550000Y100000D02*
X100000D01*
Y500000D01*
X550000D01*
Y100000D01*
D02*
G37*
%LPC*%
G36*
X520500Y131618D02*
X518159Y131152D01*
X516174Y129826D01*
X514826D01*
X512841Y131152D01*
X510500Y131618D01*
X508159Y131152D01*
X506174Y129826D01*
X504826D01*
X502841Y131152D01*
X500500Y131618D01*
X498159Y131152D01*
X496174Y129826D01*
X494826D01*
X492841Y131152D01*
X490500Y131618D01*
X488159Y131152D01*
X486174Y129826D01*
X484826D01*
X482841Y131152D01*
X480500Y131618D01*
X478159Y131152D01*
X476174Y129826D01*
X474826D01*
X472841Y131152D01*
X470500Y131618D01*
X468159Y131152D01*
X466174Y129826D01*
X464826D01*
X462841Y131152D01*
X460500Y131618D01*
X458159Y131152D01*
X456174Y129826D01*
X454826D01*
X452841Y131152D01*
X450500Y131618D01*
X448159Y131152D01*
X446174Y129826D01*
X444826D01*
X442841Y131152D01*
X440500Y131618D01*
X438159Y131152D01*
X436174Y129826D01*
X434848Y127841D01*
X434382Y125500D01*
X434681Y124000D01*
X434500Y121500D01*
X434500Y121500D01*
X434500Y121500D01*
Y109500D01*
X446500D01*
X446500Y109500D01*
X449000Y109681D01*
X450500Y109382D01*
X452841Y109848D01*
X454826Y111174D01*
X456174D01*
X458159Y109848D01*
X460500Y109382D01*
X462841Y109848D01*
X464826Y111174D01*
X466174D01*
X468159Y109848D01*
X470500Y109382D01*
X472841Y109848D01*
X474826Y111174D01*
X476174D01*
X478159Y109848D01*
X480500Y109382D01*
X482841Y109848D01*
X484826Y111174D01*
X486174D01*
X488159Y109848D01*
X490500Y109382D01*
X492841Y109848D01*
X494826Y111174D01*
X496174D01*
X498159Y109848D01*
X500500Y109382D01*
X502841Y109848D01*
X504826Y111174D01*
X506174D01*
X508159Y109848D01*
X510500Y109382D01*
X512841Y109848D01*
X514826Y111174D01*
X516174D01*
X518159Y109848D01*
X520500Y109382D01*
X522841Y109848D01*
X524826Y111174D01*
X526174D01*
X528159Y109848D01*
X530500Y109382D01*
X532841Y109848D01*
X534826Y111174D01*
X536152Y113159D01*
X536618Y115500D01*
X536152Y117841D01*
X534826Y119826D01*
X534267Y120199D01*
X533443Y122453D01*
X533823Y123274D01*
X534268Y123939D01*
X534479Y125000D01*
X530500D01*
Y125500D01*
X530000D01*
Y129479D01*
X528939Y129268D01*
X528274Y128823D01*
X527453Y128443D01*
X525199Y129267D01*
X524826Y129826D01*
X522841Y131152D01*
X520500Y131618D01*
D02*
G37*
G36*
X360500D02*
X358159Y131152D01*
X356174Y129826D01*
X354826D01*
X352841Y131152D01*
X350500Y131618D01*
X348159Y131152D01*
X346174Y129826D01*
X344826D01*
X342841Y131152D01*
X340500Y131618D01*
X338159Y131152D01*
X336174Y129826D01*
X334826D01*
X332841Y131152D01*
X330500Y131618D01*
X328159Y131152D01*
X326174Y129826D01*
X324826D01*
X322841Y131152D01*
X320500Y131618D01*
X318159Y131152D01*
X316174Y129826D01*
X314826D01*
X312841Y131152D01*
X310500Y131618D01*
X308159Y131152D01*
X306174Y129826D01*
X304826D01*
X302841Y131152D01*
X300500Y131618D01*
X298159Y131152D01*
X296174Y129826D01*
X294826D01*
X292841Y131152D01*
X290500Y131618D01*
X288159Y131152D01*
X286174Y129826D01*
X284826D01*
X282841Y131152D01*
X280500Y131618D01*
X278159Y131152D01*
X276174Y129826D01*
X274848Y127841D01*
X274382Y125500D01*
X274681Y124000D01*
X274500Y121500D01*
X274500Y121500D01*
X274500Y121500D01*
Y109500D01*
X286500D01*
X286500Y109500D01*
X289000Y109681D01*
X290500Y109382D01*
X292841Y109848D01*
X294826Y111174D01*
X296174D01*
X298159Y109848D01*
X300500Y109382D01*
X302841Y109848D01*
X304826Y111174D01*
X306174D01*
X308159Y109848D01*
X310500Y109382D01*
X312841Y109848D01*
X314826Y111174D01*
X316174D01*
X318159Y109848D01*
X320500Y109382D01*
X322841Y109848D01*
X324826Y111174D01*
X326174D01*
X328159Y109848D01*
X330500Y109382D01*
X332841Y109848D01*
X334826Y111174D01*
X336174D01*
X338159Y109848D01*
X340500Y109382D01*
X342841Y109848D01*
X344826Y111174D01*
X346174D01*
X348159Y109848D01*
X350500Y109382D01*
X352841Y109848D01*
X354826Y111174D01*
X356174D01*
X358159Y109848D01*
X360500Y109382D01*
X362841Y109848D01*
X364826Y111174D01*
X366174D01*
X368159Y109848D01*
X370500Y109382D01*
X372841Y109848D01*
X374826Y111174D01*
X376152Y113159D01*
X376618Y115500D01*
X376152Y117841D01*
X374826Y119826D01*
X374267Y120199D01*
X373443Y122453D01*
X373823Y123274D01*
X374268Y123939D01*
X374479Y125000D01*
X370500D01*
Y125500D01*
X370000D01*
Y129479D01*
X368939Y129268D01*
X368274Y128823D01*
X367453Y128443D01*
X365199Y129267D01*
X364826Y129826D01*
X362841Y131152D01*
X360500Y131618D01*
D02*
G37*
G36*
X160000Y193000D02*
X156500D01*
Y189500D01*
X160000D01*
Y193000D01*
D02*
G37*
G36*
X491000Y163000D02*
X487500D01*
Y159500D01*
X491000D01*
Y163000D01*
D02*
G37*
G36*
X371000Y129479D02*
Y126000D01*
X374479D01*
X374268Y127061D01*
X373384Y128384D01*
X372061Y129268D01*
X371000Y129479D01*
D02*
G37*
G36*
X211000D02*
Y126000D01*
X214479D01*
X214268Y127061D01*
X213384Y128384D01*
X212061Y129268D01*
X211000Y129479D01*
D02*
G37*
G36*
X200500Y131618D02*
X198159Y131152D01*
X196174Y129826D01*
X194826D01*
X192841Y131152D01*
X190500Y131618D01*
X188159Y131152D01*
X186174Y129826D01*
X184826D01*
X182841Y131152D01*
X180500Y131618D01*
X178159Y131152D01*
X176174Y129826D01*
X174826D01*
X172841Y131152D01*
X170500Y131618D01*
X168159Y131152D01*
X166174Y129826D01*
X164826D01*
X162841Y131152D01*
X160500Y131618D01*
X158159Y131152D01*
X156174Y129826D01*
X154826D01*
X152841Y131152D01*
X150500Y131618D01*
X148159Y131152D01*
X146174Y129826D01*
X144826D01*
X142841Y131152D01*
X140500Y131618D01*
X138159Y131152D01*
X136174Y129826D01*
X134826D01*
X132841Y131152D01*
X130500Y131618D01*
X128159Y131152D01*
X126174Y129826D01*
X124826D01*
X122841Y131152D01*
X120500Y131618D01*
X118159Y131152D01*
X116174Y129826D01*
X114848Y127841D01*
X114382Y125500D01*
X114681Y124000D01*
X114500Y121500D01*
X114500Y121500D01*
X114500Y121500D01*
Y109500D01*
X126500D01*
X126500Y109500D01*
X129000Y109681D01*
X130500Y109382D01*
X132841Y109848D01*
X134826Y111174D01*
X136174D01*
X138159Y109848D01*
X140500Y109382D01*
X142841Y109848D01*
X144826Y111174D01*
X146174D01*
X148159Y109848D01*
X150500Y109382D01*
X152841Y109848D01*
X154826Y111174D01*
X156174D01*
X158159Y109848D01*
X160500Y109382D01*
X162841Y109848D01*
X164826Y111174D01*
X166174D01*
X168159Y109848D01*
X170500Y109382D01*
X172841Y109848D01*
X174826Y111174D01*
X176174D01*
X178159Y109848D01*
X180500Y109382D01*
X182841Y109848D01*
X184826Y111174D01*
X186174D01*
X188159Y109848D01*
X190500Y109382D01*
X192841Y109848D01*
X194826Y111174D01*
X196174D01*
X198159Y109848D01*
X200500Y109382D01*
X202841Y109848D01*
X204826Y111174D01*
X206174D01*
X208159Y109848D01*
X210500Y109382D01*
X212841Y109848D01*
X214826Y111174D01*
X216152Y113159D01*
X216617Y115500D01*
X216152Y117841D01*
X214826Y119826D01*
X214267Y120199D01*
X213443Y122453D01*
X213823Y123274D01*
X214268Y123939D01*
X214479Y125000D01*
X210500D01*
Y125500D01*
X210000D01*
Y129479D01*
X208939Y129268D01*
X208274Y128823D01*
X207453Y128443D01*
X205199Y129267D01*
X204826Y129826D01*
X202841Y131152D01*
X200500Y131618D01*
D02*
G37*
G36*
X531000Y129479D02*
Y126000D01*
X534479D01*
X534268Y127061D01*
X533384Y128384D01*
X532061Y129268D01*
X531000Y129479D01*
D02*
G37*
G36*
X134479Y394000D02*
X131000D01*
Y390521D01*
X132061Y390732D01*
X133384Y391616D01*
X134268Y392939D01*
X134479Y394000D01*
D02*
G37*
G36*
X280500Y490618D02*
X278159Y490152D01*
X276174Y488826D01*
X274826D01*
X272841Y490152D01*
X270500Y490618D01*
X268159Y490152D01*
X266174Y488826D01*
X264826D01*
X262841Y490152D01*
X260500Y490618D01*
X258159Y490152D01*
X256174Y488826D01*
X254826D01*
X252841Y490152D01*
X250500Y490618D01*
X248159Y490152D01*
X246174Y488826D01*
X244826D01*
X242841Y490152D01*
X240500Y490618D01*
X238159Y490152D01*
X236174Y488826D01*
X234826D01*
X232841Y490152D01*
X230500Y490618D01*
X228159Y490152D01*
X226174Y488826D01*
X224826D01*
X222841Y490152D01*
X220500Y490618D01*
X218159Y490152D01*
X216174Y488826D01*
X214826D01*
X212841Y490152D01*
X210500Y490618D01*
X208159Y490152D01*
X206174Y488826D01*
X204826D01*
X202841Y490152D01*
X200500Y490618D01*
X198159Y490152D01*
X196174Y488826D01*
X194848Y486841D01*
X194382Y484500D01*
X194681Y483000D01*
X194500Y480500D01*
X194500Y480500D01*
X194500Y480500D01*
Y468500D01*
X206500D01*
X206500Y468500D01*
X209000Y468681D01*
X210500Y468382D01*
X212841Y468848D01*
X214826Y470174D01*
X216174D01*
X218159Y468848D01*
X220500Y468382D01*
X222841Y468848D01*
X224826Y470174D01*
X226174D01*
X228159Y468848D01*
X230500Y468382D01*
X232841Y468848D01*
X234826Y470174D01*
X236174D01*
X238159Y468848D01*
X240500Y468382D01*
X242841Y468848D01*
X244826Y470174D01*
X246174D01*
X248159Y468848D01*
X250500Y468382D01*
X252841Y468848D01*
X254826Y470174D01*
X256174D01*
X258159Y468848D01*
X260500Y468382D01*
X262841Y468848D01*
X264826Y470174D01*
X266174D01*
X268159Y468848D01*
X270500Y468382D01*
X272841Y468848D01*
X274826Y470174D01*
X276174D01*
X278159Y468848D01*
X280500Y468382D01*
X282841Y468848D01*
X284826Y470174D01*
X286174D01*
X288159Y468848D01*
X290500Y468382D01*
X292841Y468848D01*
X294826Y470174D01*
X296152Y472159D01*
X296618Y474500D01*
X296152Y476841D01*
X294826Y478826D01*
X294267Y479199D01*
X293443Y481453D01*
X293823Y482274D01*
X294268Y482939D01*
X294479Y484000D01*
X290500D01*
Y484500D01*
X290000D01*
Y488479D01*
X288939Y488268D01*
X288274Y487823D01*
X287453Y487443D01*
X285199Y488267D01*
X284826Y488826D01*
X282841Y490152D01*
X280500Y490618D01*
D02*
G37*
G36*
X451000Y488479D02*
Y485000D01*
X454479D01*
X454268Y486061D01*
X453384Y487384D01*
X452061Y488268D01*
X451000Y488479D01*
D02*
G37*
G36*
X130500Y490618D02*
X129000Y490319D01*
X126500Y490500D01*
X126500Y490500D01*
X126500Y490500D01*
X114500D01*
Y478500D01*
X114500Y478500D01*
X114681Y476000D01*
X114382Y474500D01*
X114848Y472159D01*
X116174Y470174D01*
Y468826D01*
X114848Y466841D01*
X114382Y464500D01*
X114848Y462159D01*
X116174Y460174D01*
Y458826D01*
X114848Y456841D01*
X114382Y454500D01*
X114848Y452159D01*
X116174Y450174D01*
Y448826D01*
X114848Y446841D01*
X114382Y444500D01*
X114848Y442159D01*
X116174Y440174D01*
Y438826D01*
X114848Y436841D01*
X114382Y434500D01*
X114848Y432159D01*
X116174Y430174D01*
Y428826D01*
X114848Y426841D01*
X114382Y424500D01*
X114848Y422159D01*
X116174Y420174D01*
Y418826D01*
X114848Y416841D01*
X114382Y414500D01*
X114848Y412159D01*
X116174Y410174D01*
Y408826D01*
X114848Y406841D01*
X114382Y404500D01*
X114848Y402159D01*
X116174Y400174D01*
Y398826D01*
X114848Y396841D01*
X114382Y394500D01*
X114848Y392159D01*
X116174Y390174D01*
X118159Y388848D01*
X120500Y388383D01*
X122841Y388848D01*
X124826Y390174D01*
X125199Y390733D01*
X127453Y391557D01*
X128274Y391177D01*
X128939Y390732D01*
X130000Y390521D01*
Y394500D01*
X130500D01*
Y395000D01*
X134479D01*
X134268Y396061D01*
X133823Y396726D01*
X133443Y397547D01*
X134267Y399801D01*
X134826Y400174D01*
X136152Y402159D01*
X136618Y404500D01*
X136152Y406841D01*
X134826Y408826D01*
Y410174D01*
X136152Y412159D01*
X136618Y414500D01*
X136152Y416841D01*
X134826Y418826D01*
Y420174D01*
X136152Y422159D01*
X136618Y424500D01*
X136152Y426841D01*
X134826Y428826D01*
Y430174D01*
X136152Y432159D01*
X136618Y434500D01*
X136152Y436841D01*
X134826Y438826D01*
Y440174D01*
X136152Y442159D01*
X136618Y444500D01*
X136152Y446841D01*
X134826Y448826D01*
Y450174D01*
X136152Y452159D01*
X136618Y454500D01*
X136152Y456841D01*
X134826Y458826D01*
Y460174D01*
X136152Y462159D01*
X136618Y464500D01*
X136152Y466841D01*
X134826Y468826D01*
Y470174D01*
X136152Y472159D01*
X136618Y474500D01*
X136152Y476841D01*
X134826Y478826D01*
Y480174D01*
X136152Y482159D01*
X136618Y484500D01*
X136152Y486841D01*
X134826Y488826D01*
X132841Y490152D01*
X130500Y490618D01*
D02*
G37*
G36*
X440500D02*
X438159Y490152D01*
X436174Y488826D01*
X434826D01*
X432841Y490152D01*
X430500Y490618D01*
X428159Y490152D01*
X426174Y488826D01*
X424826D01*
X422841Y490152D01*
X420500Y490618D01*
X418159Y490152D01*
X416174Y488826D01*
X414826D01*
X412841Y490152D01*
X410500Y490618D01*
X408159Y490152D01*
X406174Y488826D01*
X404826D01*
X402841Y490152D01*
X400500Y490618D01*
X398159Y490152D01*
X396174Y488826D01*
X394826D01*
X392841Y490152D01*
X390500Y490618D01*
X388159Y490152D01*
X386174Y488826D01*
X384826D01*
X382841Y490152D01*
X380500Y490618D01*
X378159Y490152D01*
X376174Y488826D01*
X374826D01*
X372841Y490152D01*
X370500Y490618D01*
X368159Y490152D01*
X366174Y488826D01*
X364826D01*
X362841Y490152D01*
X360500Y490618D01*
X358159Y490152D01*
X356174Y488826D01*
X354848Y486841D01*
X354382Y484500D01*
X354681Y483000D01*
X354500Y480500D01*
X354500Y480500D01*
X354500Y480500D01*
Y468500D01*
X366500D01*
X366500Y468500D01*
X369000Y468681D01*
X370500Y468382D01*
X372841Y468848D01*
X374826Y470174D01*
X376174D01*
X378159Y468848D01*
X380500Y468382D01*
X382841Y468848D01*
X384826Y470174D01*
X386174D01*
X388159Y468848D01*
X390500Y468382D01*
X392841Y468848D01*
X394826Y470174D01*
X396174D01*
X398159Y468848D01*
X400500Y468382D01*
X402841Y468848D01*
X404826Y470174D01*
X406174D01*
X408159Y468848D01*
X410500Y468382D01*
X412841Y468848D01*
X414826Y470174D01*
X416174D01*
X418159Y468848D01*
X420500Y468382D01*
X422841Y468848D01*
X424826Y470174D01*
X426174D01*
X428159Y468848D01*
X430500Y468382D01*
X432841Y468848D01*
X434826Y470174D01*
X436174D01*
X438159Y468848D01*
X440500Y468382D01*
X442841Y468848D01*
X444826Y470174D01*
X446174D01*
X448159Y468848D01*
X450500Y468382D01*
X452841Y468848D01*
X454826Y470174D01*
X456152Y472159D01*
X456618Y474500D01*
X456152Y476841D01*
X454826Y478826D01*
X454267Y479199D01*
X453443Y481453D01*
X453823Y482274D01*
X454268Y482939D01*
X454479Y484000D01*
X450500D01*
Y484500D01*
X450000D01*
Y488479D01*
X448939Y488268D01*
X448274Y487823D01*
X447453Y487443D01*
X445199Y488267D01*
X444826Y488826D01*
X442841Y490152D01*
X440500Y490618D01*
D02*
G37*
G36*
X291000Y488479D02*
Y485000D01*
X294479D01*
X294268Y486061D01*
X293384Y487384D01*
X292061Y488268D01*
X291000Y488479D01*
D02*
G37*
G36*
X401000Y418479D02*
Y415000D01*
X404479D01*
X404268Y416061D01*
X403384Y417384D01*
X402061Y418268D01*
X401000Y418479D01*
D02*
G37*
G36*
X160000Y404000D02*
X156500D01*
Y400500D01*
X160000D01*
Y404000D01*
D02*
G37*
G36*
X487000Y459618D02*
X484659Y459152D01*
X482674Y457826D01*
X482301Y457267D01*
X480047Y456443D01*
X479226Y456823D01*
X478561Y457268D01*
X477500Y457479D01*
Y453500D01*
X477000D01*
Y453000D01*
X473021D01*
X473232Y451939D01*
X473677Y451274D01*
X474057Y450453D01*
X473233Y448199D01*
X472674Y447826D01*
X471348Y445841D01*
X470882Y443500D01*
X471348Y441159D01*
X472674Y439174D01*
Y437826D01*
X471348Y435841D01*
X470882Y433500D01*
X471348Y431159D01*
X472674Y429174D01*
Y427826D01*
X471348Y425841D01*
X470882Y423500D01*
X471348Y421159D01*
X472674Y419174D01*
Y417826D01*
X471348Y415841D01*
X470882Y413500D01*
X471348Y411159D01*
X472674Y409174D01*
Y407826D01*
X471348Y405841D01*
X470882Y403500D01*
X471348Y401159D01*
X472674Y399174D01*
Y397826D01*
X471348Y395841D01*
X470882Y393500D01*
X471348Y391159D01*
X472674Y389174D01*
Y387826D01*
X471348Y385841D01*
X470882Y383500D01*
X471348Y381159D01*
X472674Y379174D01*
Y377826D01*
X471348Y375841D01*
X470882Y373500D01*
X471348Y371159D01*
X472674Y369174D01*
Y367826D01*
X471348Y365841D01*
X470882Y363500D01*
X471348Y361159D01*
X472674Y359174D01*
Y357826D01*
X471348Y355841D01*
X470882Y353500D01*
X471348Y351159D01*
X472674Y349174D01*
Y347826D01*
X471348Y345841D01*
X470882Y343500D01*
X471348Y341159D01*
X472674Y339174D01*
Y337826D01*
X471348Y335841D01*
X470882Y333500D01*
X471348Y331159D01*
X472674Y329174D01*
Y327826D01*
X471348Y325841D01*
X470882Y323500D01*
X471348Y321159D01*
X472674Y319174D01*
Y317826D01*
X471348Y315841D01*
X470882Y313500D01*
X471348Y311159D01*
X472674Y309174D01*
Y307826D01*
X471348Y305841D01*
X470882Y303500D01*
X471348Y301159D01*
X472674Y299174D01*
Y297826D01*
X471348Y295841D01*
X470882Y293500D01*
X471348Y291159D01*
X472674Y289174D01*
Y287826D01*
X471348Y285841D01*
X470882Y283500D01*
X471348Y281159D01*
X472674Y279174D01*
Y277826D01*
X471348Y275841D01*
X470882Y273500D01*
X471348Y271159D01*
X472674Y269174D01*
Y267826D01*
X471348Y265841D01*
X470882Y263500D01*
X471348Y261159D01*
X472674Y259174D01*
Y257826D01*
X471348Y255841D01*
X470882Y253500D01*
X471348Y251159D01*
X472674Y249174D01*
Y247826D01*
X471348Y245841D01*
X470882Y243500D01*
X471348Y241159D01*
X472674Y239174D01*
Y237826D01*
X471348Y235841D01*
X470882Y233500D01*
X471348Y231159D01*
X472674Y229174D01*
Y227826D01*
X471348Y225841D01*
X470882Y223500D01*
X471348Y221159D01*
X472674Y219174D01*
Y217826D01*
X471348Y215841D01*
X470882Y213500D01*
X471348Y211159D01*
X472674Y209174D01*
Y207826D01*
X471348Y205841D01*
X470882Y203500D01*
X471348Y201159D01*
X472674Y199174D01*
Y197826D01*
X471348Y195841D01*
X470882Y193500D01*
X471348Y191159D01*
X472146Y189964D01*
X471743Y188976D01*
X468918Y188431D01*
X456343Y201006D01*
Y396500D01*
X455974Y398353D01*
X454925Y399925D01*
X423925Y430925D01*
X422353Y431974D01*
X420500Y432343D01*
X183500D01*
X181647Y431974D01*
X180075Y430925D01*
X169587Y420436D01*
X168159Y420152D01*
X166174Y418826D01*
X164826D01*
X162841Y420152D01*
X160500Y420618D01*
X158159Y420152D01*
X156174Y418826D01*
X154848Y416841D01*
X154382Y414500D01*
X154848Y412159D01*
X155813Y410715D01*
X156500Y408500D01*
X156500Y408500D01*
X156500D01*
X156500Y408500D01*
Y405000D01*
X160500D01*
Y404500D01*
X161000D01*
Y400500D01*
X164500D01*
Y402122D01*
X165213Y402383D01*
X167000Y402538D01*
X167616Y401616D01*
X168939Y400732D01*
X170000Y400521D01*
Y404500D01*
X171000D01*
Y400521D01*
X172061Y400732D01*
X172726Y401177D01*
X173547Y401557D01*
X175801Y400733D01*
X176174Y400174D01*
X178159Y398848D01*
X180500Y398382D01*
X182841Y398848D01*
X184826Y400174D01*
X186174D01*
X188159Y398848D01*
X190500Y398382D01*
X192841Y398848D01*
X194826Y400174D01*
X196174D01*
X198159Y398848D01*
X200500Y398382D01*
X202841Y398848D01*
X204826Y400174D01*
X206174D01*
X208159Y398848D01*
X210500Y398382D01*
X212841Y398848D01*
X214826Y400174D01*
X216174D01*
X218159Y398848D01*
X220500Y398382D01*
X222841Y398848D01*
X224826Y400174D01*
X226174D01*
X228159Y398848D01*
X230500Y398382D01*
X232841Y398848D01*
X234826Y400174D01*
X236174D01*
X238159Y398848D01*
X240500Y398382D01*
X242841Y398848D01*
X244826Y400174D01*
X246174D01*
X248159Y398848D01*
X250500Y398382D01*
X252841Y398848D01*
X254826Y400174D01*
X256174D01*
X258159Y398848D01*
X260500Y398382D01*
X262841Y398848D01*
X264826Y400174D01*
X266174D01*
X268159Y398848D01*
X270500Y398382D01*
X272841Y398848D01*
X274826Y400174D01*
X276174D01*
X278159Y398848D01*
X280500Y398382D01*
X282841Y398848D01*
X284826Y400174D01*
X286174D01*
X288159Y398848D01*
X290500Y398382D01*
X292841Y398848D01*
X294826Y400174D01*
X296174D01*
X298159Y398848D01*
X300500Y398382D01*
X302841Y398848D01*
X304826Y400174D01*
X306174D01*
X308159Y398848D01*
X310500Y398382D01*
X312841Y398848D01*
X314826Y400174D01*
X316174D01*
X318159Y398848D01*
X320500Y398382D01*
X322841Y398848D01*
X324826Y400174D01*
X326174D01*
X328159Y398848D01*
X330500Y398382D01*
X332841Y398848D01*
X334826Y400174D01*
X336174D01*
X338159Y398848D01*
X340500Y398382D01*
X342841Y398848D01*
X344826Y400174D01*
X346174D01*
X348159Y398848D01*
X350500Y398382D01*
X352841Y398848D01*
X354826Y400174D01*
X356174D01*
X358159Y398848D01*
X360500Y398382D01*
X362841Y398848D01*
X364826Y400174D01*
X366174D01*
X368159Y398848D01*
X370500Y398382D01*
X372841Y398848D01*
X374826Y400174D01*
X376174D01*
X378159Y398848D01*
X380500Y398382D01*
X382841Y398848D01*
X384826Y400174D01*
X386174D01*
X388159Y398848D01*
X390500Y398382D01*
X392841Y398848D01*
X394826Y400174D01*
X396174D01*
X398159Y398848D01*
X400500Y398382D01*
X402841Y398848D01*
X404826Y400174D01*
X406152Y402159D01*
X406617Y404500D01*
X406152Y406841D01*
X404826Y408826D01*
X404267Y409199D01*
X403443Y411453D01*
X403823Y412274D01*
X404268Y412939D01*
X404479Y414000D01*
X400500D01*
Y414500D01*
X400000D01*
Y418479D01*
X398939Y418268D01*
X398274Y417823D01*
X397453Y417443D01*
X395199Y418267D01*
X394826Y418826D01*
X392841Y420152D01*
X392816Y420157D01*
X393062Y422657D01*
X418494D01*
X446657Y394494D01*
Y213959D01*
X444347Y213002D01*
X433425Y223925D01*
X431853Y224974D01*
X430000Y225343D01*
X187500D01*
X185647Y224974D01*
X184075Y223925D01*
X169587Y209436D01*
X168159Y209152D01*
X166174Y207826D01*
X164826D01*
X162841Y209152D01*
X160500Y209617D01*
X158159Y209152D01*
X156174Y207826D01*
X154848Y205841D01*
X154382Y203500D01*
X154848Y201159D01*
X155813Y199715D01*
X156500Y197500D01*
X156500Y197500D01*
X156500D01*
X156500Y197500D01*
Y194000D01*
X160500D01*
Y193500D01*
X161000D01*
Y189500D01*
X164500D01*
Y191122D01*
X165213Y191383D01*
X167000Y191538D01*
X167616Y190616D01*
X168939Y189732D01*
X170000Y189521D01*
Y193500D01*
X171000D01*
Y189521D01*
X172061Y189732D01*
X172726Y190177D01*
X173547Y190557D01*
X175801Y189733D01*
X176174Y189174D01*
X178159Y187848D01*
X180500Y187382D01*
X182841Y187848D01*
X184826Y189174D01*
X186174D01*
X188159Y187848D01*
X190500Y187382D01*
X192841Y187848D01*
X194826Y189174D01*
X196174D01*
X198159Y187848D01*
X200500Y187382D01*
X202841Y187848D01*
X204826Y189174D01*
X206174D01*
X208159Y187848D01*
X210500Y187382D01*
X212841Y187848D01*
X214826Y189174D01*
X216174D01*
X218159Y187848D01*
X220500Y187382D01*
X222841Y187848D01*
X224826Y189174D01*
X226174D01*
X228159Y187848D01*
X230500Y187382D01*
X232841Y187848D01*
X234826Y189174D01*
X236174D01*
X238159Y187848D01*
X240500Y187382D01*
X242841Y187848D01*
X244826Y189174D01*
X246174D01*
X248159Y187848D01*
X250500Y187382D01*
X252841Y187848D01*
X254826Y189174D01*
X256174D01*
X258159Y187848D01*
X260500Y187382D01*
X262841Y187848D01*
X264826Y189174D01*
X266174D01*
X268159Y187848D01*
X270500Y187382D01*
X272841Y187848D01*
X274826Y189174D01*
X276174D01*
X278159Y187848D01*
X280500Y187382D01*
X282841Y187848D01*
X284826Y189174D01*
X286174D01*
X288159Y187848D01*
X290500Y187382D01*
X292841Y187848D01*
X294826Y189174D01*
X296174D01*
X298159Y187848D01*
X300500Y187382D01*
X302841Y187848D01*
X304826Y189174D01*
X306174D01*
X308159Y187848D01*
X310500Y187382D01*
X312841Y187848D01*
X314826Y189174D01*
X316174D01*
X318159Y187848D01*
X320500Y187382D01*
X322841Y187848D01*
X324826Y189174D01*
X326174D01*
X328159Y187848D01*
X330500Y187382D01*
X332841Y187848D01*
X334826Y189174D01*
X336174D01*
X338159Y187848D01*
X340500Y187382D01*
X342841Y187848D01*
X344826Y189174D01*
X346174D01*
X348159Y187848D01*
X350500Y187382D01*
X352841Y187848D01*
X354826Y189174D01*
X356174D01*
X358159Y187848D01*
X360500Y187382D01*
X362841Y187848D01*
X364826Y189174D01*
X366174D01*
X368159Y187848D01*
X370500Y187382D01*
X372841Y187848D01*
X374826Y189174D01*
X376174D01*
X378159Y187848D01*
X380500Y187382D01*
X382841Y187848D01*
X384826Y189174D01*
X386174D01*
X388159Y187848D01*
X390500Y187382D01*
X392841Y187848D01*
X394826Y189174D01*
X396174D01*
X398159Y187848D01*
X400500Y187382D01*
X402841Y187848D01*
X404826Y189174D01*
X406152Y191159D01*
X406617Y193500D01*
X406152Y195841D01*
X404826Y197826D01*
Y199174D01*
X406152Y201159D01*
X406617Y203500D01*
X406152Y205841D01*
X404826Y207826D01*
X402841Y209152D01*
X400500Y209617D01*
X398159Y209152D01*
X396174Y207826D01*
X394826D01*
X392841Y209152D01*
X390500Y209617D01*
X388159Y209152D01*
X386174Y207826D01*
X384826D01*
X382841Y209152D01*
X380500Y209617D01*
X378159Y209152D01*
X376174Y207826D01*
X374826D01*
X372841Y209152D01*
X370500Y209617D01*
X368159Y209152D01*
X366174Y207826D01*
X364826D01*
X362841Y209152D01*
X360500Y209617D01*
X358159Y209152D01*
X356174Y207826D01*
X354826D01*
X352841Y209152D01*
X350500Y209617D01*
X348159Y209152D01*
X346174Y207826D01*
X344826D01*
X342841Y209152D01*
X340500Y209617D01*
X338159Y209152D01*
X336174Y207826D01*
X334826D01*
X332841Y209152D01*
X330500Y209617D01*
X328159Y209152D01*
X326174Y207826D01*
X324826D01*
X322841Y209152D01*
X320500Y209617D01*
X318159Y209152D01*
X316174Y207826D01*
X314826D01*
X312841Y209152D01*
X310500Y209617D01*
X308159Y209152D01*
X306174Y207826D01*
X304826D01*
X302841Y209152D01*
X300500Y209617D01*
X298159Y209152D01*
X296174Y207826D01*
X294826D01*
X292841Y209152D01*
X290500Y209617D01*
X288159Y209152D01*
X286174Y207826D01*
X284826D01*
X282841Y209152D01*
X280500Y209617D01*
X278159Y209152D01*
X276174Y207826D01*
X274826D01*
X272841Y209152D01*
X270500Y209617D01*
X268159Y209152D01*
X266174Y207826D01*
X264826D01*
X262841Y209152D01*
X260500Y209617D01*
X258159Y209152D01*
X256174Y207826D01*
X254826D01*
X252841Y209152D01*
X250500Y209617D01*
X248159Y209152D01*
X246174Y207826D01*
X244826D01*
X242841Y209152D01*
X240500Y209617D01*
X238159Y209152D01*
X236174Y207826D01*
X234826D01*
X232841Y209152D01*
X230500Y209617D01*
X228159Y209152D01*
X226174Y207826D01*
X224826D01*
X222841Y209152D01*
X220500Y209617D01*
X218159Y209152D01*
X216174Y207826D01*
X214826D01*
X212841Y209152D01*
X210500Y209617D01*
X208159Y209152D01*
X206174Y207826D01*
X204826D01*
X202841Y209152D01*
X200500Y209617D01*
X198159Y209152D01*
X196174Y207826D01*
X194826D01*
X192841Y209152D01*
X190500Y209617D01*
X188159Y209152D01*
X187047Y208409D01*
X186135Y208750D01*
X185504Y211655D01*
X189506Y215657D01*
X427994D01*
X448075Y195575D01*
X471064Y172587D01*
X471348Y171159D01*
X472674Y169174D01*
Y167826D01*
X471348Y165841D01*
X470882Y163500D01*
X471348Y161159D01*
X472674Y159174D01*
X474659Y157848D01*
X477000Y157382D01*
X479341Y157848D01*
X480785Y158813D01*
X483000Y159500D01*
X483000Y159500D01*
Y159500D01*
X483000Y159500D01*
X486500D01*
Y163500D01*
X487000D01*
Y164000D01*
X491000D01*
Y167500D01*
X489377D01*
X489117Y168213D01*
X488962Y170000D01*
X489884Y170616D01*
X490768Y171939D01*
X490979Y173000D01*
X487000D01*
Y174000D01*
X490979D01*
X490768Y175061D01*
X490323Y175726D01*
X489943Y176547D01*
X490767Y178801D01*
X491326Y179174D01*
X492652Y181159D01*
X493118Y183500D01*
X492652Y185841D01*
X491326Y187826D01*
Y189174D01*
X492652Y191159D01*
X493118Y193500D01*
X492652Y195841D01*
X491326Y197826D01*
Y199174D01*
X492652Y201159D01*
X493118Y203500D01*
X492652Y205841D01*
X491326Y207826D01*
Y209174D01*
X492652Y211159D01*
X493118Y213500D01*
X492652Y215841D01*
X491326Y217826D01*
Y219174D01*
X492652Y221159D01*
X493118Y223500D01*
X492652Y225841D01*
X491326Y227826D01*
Y229174D01*
X492652Y231159D01*
X493118Y233500D01*
X492652Y235841D01*
X491326Y237826D01*
Y239174D01*
X492652Y241159D01*
X493118Y243500D01*
X492652Y245841D01*
X491326Y247826D01*
Y249174D01*
X492652Y251159D01*
X493118Y253500D01*
X492652Y255841D01*
X491326Y257826D01*
Y259174D01*
X492652Y261159D01*
X493118Y263500D01*
X492652Y265841D01*
X491326Y267826D01*
Y269174D01*
X492652Y271159D01*
X493118Y273500D01*
X492652Y275841D01*
X491326Y277826D01*
Y279174D01*
X492652Y281159D01*
X493118Y283500D01*
X492652Y285841D01*
X491326Y287826D01*
Y289174D01*
X492652Y291159D01*
X493118Y293500D01*
X492652Y295841D01*
X491326Y297826D01*
Y299174D01*
X492652Y301159D01*
X493118Y303500D01*
X492652Y305841D01*
X491326Y307826D01*
Y309174D01*
X492652Y311159D01*
X493118Y313500D01*
X492652Y315841D01*
X491326Y317826D01*
Y319174D01*
X492652Y321159D01*
X493118Y323500D01*
X492652Y325841D01*
X491326Y327826D01*
Y329174D01*
X492652Y331159D01*
X493118Y333500D01*
X492652Y335841D01*
X491326Y337826D01*
Y339174D01*
X492652Y341159D01*
X493118Y343500D01*
X492652Y345841D01*
X491326Y347826D01*
Y349174D01*
X492652Y351159D01*
X493118Y353500D01*
X492652Y355841D01*
X491326Y357826D01*
Y359174D01*
X492652Y361159D01*
X493118Y363500D01*
X492652Y365841D01*
X491326Y367826D01*
Y369174D01*
X492652Y371159D01*
X493118Y373500D01*
X492652Y375841D01*
X491326Y377826D01*
Y379174D01*
X492652Y381159D01*
X493118Y383500D01*
X492652Y385841D01*
X491326Y387826D01*
Y389174D01*
X492652Y391159D01*
X493118Y393500D01*
X492652Y395841D01*
X491326Y397826D01*
Y399174D01*
X492652Y401159D01*
X493118Y403500D01*
X492652Y405841D01*
X491326Y407826D01*
Y409174D01*
X492652Y411159D01*
X493118Y413500D01*
X492652Y415841D01*
X491326Y417826D01*
Y419174D01*
X492652Y421159D01*
X493118Y423500D01*
X492652Y425841D01*
X491326Y427826D01*
Y429174D01*
X492652Y431159D01*
X493118Y433500D01*
X492652Y435841D01*
X491326Y437826D01*
Y439174D01*
X492652Y441159D01*
X493118Y443500D01*
X492652Y445841D01*
X491326Y447826D01*
Y449174D01*
X492652Y451159D01*
X493118Y453500D01*
X492652Y455841D01*
X491326Y457826D01*
X489341Y459152D01*
X487000Y459618D01*
D02*
G37*
G36*
X476500Y457479D02*
X475439Y457268D01*
X474116Y456384D01*
X473232Y455061D01*
X473021Y454000D01*
X476500D01*
Y457479D01*
D02*
G37*
%LPD*%
D10*
X451500Y199000D02*
X477000Y173500D01*
X451500Y199000D02*
Y396500D01*
X420500Y427500D02*
X451500Y396500D01*
X183500Y427500D02*
X420500D01*
X170500Y414500D02*
X183500Y427500D01*
X430000Y220500D02*
X451500Y199000D01*
X170500Y203500D02*
X187500Y220500D01*
X430000D01*
D11*
X170500Y414500D02*
X171500D01*
D12*
X487000Y163500D02*
D03*
X120500Y484500D02*
D03*
D13*
X477000Y163500D02*
D03*
X487000Y173500D02*
D03*
X477000D02*
D03*
X487000Y183500D02*
D03*
X477000D02*
D03*
X487000Y193500D02*
D03*
X477000D02*
D03*
X487000Y203500D02*
D03*
X477000D02*
D03*
X487000Y213500D02*
D03*
X477000D02*
D03*
X487000Y223500D02*
D03*
X477000D02*
D03*
X487000Y233500D02*
D03*
X477000D02*
D03*
X487000Y243500D02*
D03*
X477000D02*
D03*
X487000Y253500D02*
D03*
X477000D02*
D03*
X487000Y263500D02*
D03*
X477000D02*
D03*
X487000Y273500D02*
D03*
X477000D02*
D03*
X487000Y283500D02*
D03*
X477000D02*
D03*
X487000Y293500D02*
D03*
X477000D02*
D03*
X487000Y303500D02*
D03*
X477000D02*
D03*
X487000Y313500D02*
D03*
X477000D02*
D03*
X487000Y323500D02*
D03*
X477000D02*
D03*
X487000Y333500D02*
D03*
X477000D02*
D03*
X487000Y343500D02*
D03*
X477000D02*
D03*
X487000Y353500D02*
D03*
X477000D02*
D03*
X487000Y363500D02*
D03*
X477000D02*
D03*
X487000Y373500D02*
D03*
X477000D02*
D03*
X487000Y383500D02*
D03*
X477000D02*
D03*
X487000Y393500D02*
D03*
X477000D02*
D03*
X487000Y403500D02*
D03*
X477000D02*
D03*
X487000Y413500D02*
D03*
X477000D02*
D03*
X487000Y423500D02*
D03*
X477000D02*
D03*
X487000Y433500D02*
D03*
X477000D02*
D03*
X487000Y443500D02*
D03*
X477000D02*
D03*
X487000Y453500D02*
D03*
X477000D02*
D03*
X400500Y203500D02*
D03*
Y193500D02*
D03*
X390500Y203500D02*
D03*
Y193500D02*
D03*
X380500Y203500D02*
D03*
Y193500D02*
D03*
X370500Y203500D02*
D03*
Y193500D02*
D03*
X360500Y203500D02*
D03*
Y193500D02*
D03*
X350500Y203500D02*
D03*
Y193500D02*
D03*
X340500Y203500D02*
D03*
Y193500D02*
D03*
X330500Y203500D02*
D03*
Y193500D02*
D03*
X320500Y203500D02*
D03*
Y193500D02*
D03*
X310500Y203500D02*
D03*
Y193500D02*
D03*
X300500Y203500D02*
D03*
Y193500D02*
D03*
X290500Y203500D02*
D03*
Y193500D02*
D03*
X280500Y203500D02*
D03*
Y193500D02*
D03*
X270500Y203500D02*
D03*
Y193500D02*
D03*
X260500Y203500D02*
D03*
Y193500D02*
D03*
X250500Y203500D02*
D03*
Y193500D02*
D03*
X240500Y203500D02*
D03*
Y193500D02*
D03*
X230500Y203500D02*
D03*
Y193500D02*
D03*
X220500Y203500D02*
D03*
Y193500D02*
D03*
X210500Y203500D02*
D03*
Y193500D02*
D03*
X200500Y203500D02*
D03*
Y193500D02*
D03*
X190500Y203500D02*
D03*
Y193500D02*
D03*
X180500Y203500D02*
D03*
Y193500D02*
D03*
X170500Y203500D02*
D03*
Y193500D02*
D03*
X160500Y203500D02*
D03*
X400500Y414500D02*
D03*
Y404500D02*
D03*
X390500Y414500D02*
D03*
Y404500D02*
D03*
X380500Y414500D02*
D03*
Y404500D02*
D03*
X370500Y414500D02*
D03*
Y404500D02*
D03*
X360500Y414500D02*
D03*
Y404500D02*
D03*
X350500Y414500D02*
D03*
Y404500D02*
D03*
X340500Y414500D02*
D03*
Y404500D02*
D03*
X330500Y414500D02*
D03*
Y404500D02*
D03*
X320500Y414500D02*
D03*
Y404500D02*
D03*
X310500Y414500D02*
D03*
Y404500D02*
D03*
X300500Y414500D02*
D03*
Y404500D02*
D03*
X290500Y414500D02*
D03*
Y404500D02*
D03*
X280500Y414500D02*
D03*
Y404500D02*
D03*
X270500Y414500D02*
D03*
Y404500D02*
D03*
X260500Y414500D02*
D03*
Y404500D02*
D03*
X250500Y414500D02*
D03*
Y404500D02*
D03*
X240500Y414500D02*
D03*
Y404500D02*
D03*
X230500Y414500D02*
D03*
Y404500D02*
D03*
X220500Y414500D02*
D03*
Y404500D02*
D03*
X210500Y414500D02*
D03*
Y404500D02*
D03*
X200500Y414500D02*
D03*
Y404500D02*
D03*
X190500Y414500D02*
D03*
Y404500D02*
D03*
X180500Y414500D02*
D03*
Y404500D02*
D03*
X170500Y414500D02*
D03*
Y404500D02*
D03*
X160500Y414500D02*
D03*
X120500Y125500D02*
D03*
X130500Y115500D02*
D03*
Y125500D02*
D03*
X140500Y115500D02*
D03*
Y125500D02*
D03*
X150500Y115500D02*
D03*
Y125500D02*
D03*
X160500Y115500D02*
D03*
Y125500D02*
D03*
X170500Y115500D02*
D03*
Y125500D02*
D03*
X180500Y115500D02*
D03*
Y125500D02*
D03*
X190500Y115500D02*
D03*
Y125500D02*
D03*
X200500Y115500D02*
D03*
Y125500D02*
D03*
X210500Y115500D02*
D03*
Y125500D02*
D03*
X280500D02*
D03*
X290500Y115500D02*
D03*
Y125500D02*
D03*
X300500Y115500D02*
D03*
Y125500D02*
D03*
X310500Y115500D02*
D03*
Y125500D02*
D03*
X320500Y115500D02*
D03*
Y125500D02*
D03*
X330500Y115500D02*
D03*
Y125500D02*
D03*
X340500Y115500D02*
D03*
Y125500D02*
D03*
X350500Y115500D02*
D03*
Y125500D02*
D03*
X360500Y115500D02*
D03*
Y125500D02*
D03*
X370500Y115500D02*
D03*
Y125500D02*
D03*
X440500D02*
D03*
X450500Y115500D02*
D03*
Y125500D02*
D03*
X460500Y115500D02*
D03*
Y125500D02*
D03*
X470500Y115500D02*
D03*
Y125500D02*
D03*
X480500Y115500D02*
D03*
Y125500D02*
D03*
X490500Y115500D02*
D03*
Y125500D02*
D03*
X500500Y115500D02*
D03*
Y125500D02*
D03*
X510500Y115500D02*
D03*
Y125500D02*
D03*
X520500Y115500D02*
D03*
Y125500D02*
D03*
X530500Y115500D02*
D03*
Y125500D02*
D03*
X130500Y484500D02*
D03*
X120500Y474500D02*
D03*
X130500D02*
D03*
X120500Y464500D02*
D03*
X130500D02*
D03*
X120500Y454500D02*
D03*
X130500D02*
D03*
X120500Y444500D02*
D03*
X130500D02*
D03*
X120500Y434500D02*
D03*
X130500D02*
D03*
X120500Y424500D02*
D03*
X130500D02*
D03*
X120500Y414500D02*
D03*
X130500D02*
D03*
X120500Y404500D02*
D03*
X130500D02*
D03*
X120500Y394500D02*
D03*
X130500D02*
D03*
X200500Y484500D02*
D03*
X210500Y474500D02*
D03*
Y484500D02*
D03*
X220500Y474500D02*
D03*
Y484500D02*
D03*
X230500Y474500D02*
D03*
Y484500D02*
D03*
X240500Y474500D02*
D03*
Y484500D02*
D03*
X250500Y474500D02*
D03*
Y484500D02*
D03*
X260500Y474500D02*
D03*
Y484500D02*
D03*
X270500Y474500D02*
D03*
Y484500D02*
D03*
X280500Y474500D02*
D03*
Y484500D02*
D03*
X290500Y474500D02*
D03*
Y484500D02*
D03*
X360500D02*
D03*
X370500Y474500D02*
D03*
Y484500D02*
D03*
X380500Y474500D02*
D03*
Y484500D02*
D03*
X390500Y474500D02*
D03*
Y484500D02*
D03*
X400500Y474500D02*
D03*
Y484500D02*
D03*
X410500Y474500D02*
D03*
Y484500D02*
D03*
X420500Y474500D02*
D03*
Y484500D02*
D03*
X430500Y474500D02*
D03*
Y484500D02*
D03*
X440500Y474500D02*
D03*
Y484500D02*
D03*
X450500Y474500D02*
D03*
Y484500D02*
D03*
D14*
X160500Y193500D02*
D03*
Y404500D02*
D03*
X120500Y115500D02*
D03*
X280500D02*
D03*
X440500D02*
D03*
X200500Y474500D02*
D03*
X360500D02*
D03*
M02*
